<?xml version="1.0" encoding="UTF-8"?>
<!DOCTYPE svg PUBLIC "-//W3C//DTD SVG 1.1//EN" "http://www.w3.org/Graphics/SVG/1.1/DTD/svg11.dtd">
<!-- Creator: CorelDRAW X7 -->
<svg xmlns="http://www.w3.org/2000/svg" xml:space="preserve" width="0.354331in" height="0.314961in" version="1.1" style="shape-rendering:geometricPrecision; text-rendering:geometricPrecision; image-rendering:optimizeQuality; fill-rule:evenodd; clip-rule:evenodd"
viewBox="0 0 354 315"
 xmlns:xlink="http://www.w3.org/1999/xlink">
 <defs>
  <style type="text/css">
   <![CDATA[
    .fil0 {fill:#464545}
    .fil1 {fill:#FB6E51}
    .fil2 {fill:#FEFEFE}
    .fil3 {fill:white}
    .fnt0 {font-weight:500;font-size:132.866px;font-family:'Futura-Bold'}
   ]]>
  </style>
 </defs>
 <g id="Layer_x0020_1">
  <metadata id="CorelCorpID_0Corel-Layer"/>
  <g id="_1198826368">
   <path class="fil0" d="M119 264c11,-5 31,2 41,-2 3,-11 -8,-17 -13,-23l-38 -38c-6,-6 -17,-13 -14,-23 10,-3 15,6 20,12 5,5 29,31 34,31 5,1 8,-3 7,-8 -2,-6 -5,-2 -3,-12 12,-5 12,7 20,9 5,1 6,-2 7,-4 4,-7 -4,-5 -2,-16 8,-6 10,1 16,6 6,5 14,2 12,-6 -2,-4 -5,-5 -3,-10 3,-13 21,8 23,10 21,21 44,36 32,72 -5,12 -17,22 -25,30 -12,12 -18,12 -41,6 -21,-5 -42,-15 -60,-20 -11,-3 -16,-1 -13,-14zm-103 -44c-2,-3 -1,0 -2,-5l-1 -184c0,-12 -2,-17 10,-17l309 0c9,0 9,2 9,10l0 186c0,9 0,11 -9,11l-63 0c-3,-9 -45,-54 -56,-57 -17,-4 -22,10 -23,12 -6,-2 -12,-1 -17,1 -6,4 -4,5 -8,10 -17,-2 -15,2 -24,9 -17,-12 -33,-44 -53,-27 -23,19 16,39 21,52 -13,0 -86,2 -93,-1zm122 30c-15,-1 -26,-1 -31,12 -6,14 3,24 14,27 23,5 42,15 64,21 38,10 44,5 63,-15 18,-18 27,-26 25,-61 83,0 81,10 81,-50 0,-45 0,-89 0,-133 0,-60 3,-50 -80,-50 -28,0 -253,-2 -261,1 -17,6 -12,33 -12,53l0 133c0,55 -1,46 85,46 10,0 22,-1 33,0 7,0 8,3 15,10 3,3 2,2 4,6z"/>
   <path class="fil1" d="M16 220c7,3 80,1 93,1 -5,-13 -44,-33 -21,-52 20,-17 36,15 53,27 9,-7 7,-11 24,-9 4,-5 2,-6 8,-10 5,-2 11,-3 17,-1 1,-2 6,-16 23,-12 11,3 53,48 56,57l63 0c9,0 9,-2 9,-11l0 -186c0,-8 0,-10 -9,-10l-309 0c-12,0 -10,5 -10,17l1 184c1,5 0,2 2,5z"/>
   <path class="fil2" d="M95 178c-3,10 8,17 14,23l38 38c5,6 16,12 13,23 -10,4 -30,-3 -41,2 -3,13 2,11 13,14 18,5 39,15 60,20 23,6 29,6 41,-6 8,-8 20,-18 25,-30 12,-36 -11,-51 -32,-72 -2,-2 -20,-23 -23,-10 -2,5 1,6 3,10 2,8 -6,11 -12,6 -6,-5 -8,-12 -16,-6 -2,11 6,9 2,16 -1,2 -2,5 -7,4 -8,-2 -8,-14 -20,-9 -2,10 1,6 3,12 1,5 -2,9 -7,8 -5,0 -29,-26 -34,-31 -5,-6 -10,-15 -20,-12z"/>
   <g transform="matrix(0.992392 0 0 1 -146.946 8.77221)">
    <text x="177" y="157"  class="fil3 fnt0">BUY</text>
   </g>
  </g>
 </g>
</svg>
