<?xml version="1.0" encoding="UTF-8"?>
<!DOCTYPE svg PUBLIC "-//W3C//DTD SVG 1.1//EN" "http://www.w3.org/Graphics/SVG/1.1/DTD/svg11.dtd">
<!-- Creator: CorelDRAW X7 -->
<svg xmlns="http://www.w3.org/2000/svg" xml:space="preserve" width="2.602in" height="3.025in" version="1.1" style="shape-rendering:geometricPrecision; text-rendering:geometricPrecision; image-rendering:optimizeQuality; fill-rule:evenodd; clip-rule:evenodd"
viewBox="0 0 2602 3025"
 xmlns:xlink="http://www.w3.org/1999/xlink">
 <defs>
  <style type="text/css">
   <![CDATA[
    .fil11 {fill:#263138;fill-rule:nonzero}
    .fil2 {fill:#336666;fill-rule:nonzero}
    .fil10 {fill:#36464F;fill-rule:nonzero}
    .fil9 {fill:#445964;fill-rule:nonzero}
    .fil7 {fill:#4C988D;fill-rule:nonzero}
    .fil1 {fill:#669999;fill-rule:nonzero}
    .fil0 {fill:#84C2BA;fill-rule:nonzero}
    .fil12 {fill:#BA67C8;fill-rule:nonzero}
    .fil16 {fill:#CC6633;fill-rule:nonzero}
    .fil13 {fill:#D0DFE8;fill-rule:nonzero}
    .fil5 {fill:#DFDFDF;fill-rule:nonzero}
    .fil6 {fill:#E6E6E6;fill-rule:nonzero}
    .fil4 {fill:#F4F4F4;fill-rule:nonzero}
    .fil15 {fill:#FFCE9D;fill-rule:nonzero}
    .fil8 {fill:white;fill-rule:nonzero}
    .fil17 {fill:black;fill-rule:nonzero;fill-opacity:0.301961}
    .fil14 {fill:black;fill-rule:nonzero;fill-opacity:0.501961}
    .fil18 {fill:black;fill-rule:nonzero;fill-opacity:0.701961}
    .fil3 {fill:white;fill-rule:nonzero;fill-opacity:0.901961}
   ]]>
  </style>
 </defs>
 <g id="Layer_x0020_1">
  <metadata id="CorelCorpID_0Corel-Layer"/>
  <g id="_792443088">
   <g id="_967698464">
    <g>
     <path class="fil0" d="M476 461l-262 -151c-8,-5 -15,-5 -21,-3l0 0 0 0c-1,1 -2,1 -2,2l-57 33c0,0 0,0 0,0 -7,4 -12,13 -12,27l0 292c0,25 15,54 34,64l263 152c8,5 17,5 23,1 -1,0 -1,0 -1,0l57 -33 0 0c7,-4 12,-14 12,-28l0 -292c0,-24 -15,-53 -34,-64z"/>
     <path class="fil1" d="M501 489c-7,-12 -15,-22 -25,-28l-262 -151c-8,-5 -15,-5 -21,-3l0 0 0 0c-1,1 -2,1 -2,2l-57 33c6,-3 13,-3 22,2l263 151c9,6 18,17 24,29l58 -35z"/>
     <path class="fil2" d="M452 851c0,14 -4,23 -11,27l57 -33 0 0c7,-4 12,-14 12,-28l0 -292c0,-12 -4,-25 -9,-36l-58 35c6,11 9,24 9,35l0 292z"/>
     <path class="fil3" d="M371 644c0,38 -15,51 -37,38 -13,-7 -21,-19 -25,-33 -7,8 -17,9 -32,0 -23,-13 -42,-46 -42,-77 0,-32 19,-43 42,-29 12,7 22,17 29,30l0 -13 24 15 0 68c0,10 4,16 9,19 9,5 14,-4 14,-28 0,-43 -28,-88 -68,-112 -41,-23 -68,-7 -68,37 0,45 26,92 67,116 12,7 25,11 36,11l6 23c-11,0 -28,-5 -42,-14 -53,-30 -88,-92 -88,-148 0,-55 36,-76 89,-45 51,30 86,89 86,142l0 0zm-65 -32l0 0c0,-18 -10,-34 -23,-42 -13,-7 -23,-2 -23,16 0,18 10,35 23,42 13,8 23,3 23,-16z"/>
    </g>
    <path class="fil4" d="M2602 2285c0,409 -582,740 -1301,740 -719,0 -1301,-331 -1301,-740 0,-408 582,-739 1301,-739 719,0 1301,331 1301,739z"/>
    <path class="fil5" d="M1843 2751l-972 -560c-37,-22 -37,-76 0,-98l96 -60c34,-20 75,-20 109,0l971 561c38,21 38,75 0,97l-96 60c-33,20 -75,20 -108,0z"/>
    <path class="fil6" d="M576 2119c0,67 -94,121 -211,121 -116,0 -210,-54 -210,-121 0,-67 94,-121 210,-121 117,0 211,54 211,121z"/>
    <path class="fil7" d="M2187 2268l92 53c0,0 -47,-148 -22,-298 10,-57 30,-85 37,-100 8,-15 63,-108 14,-151 -49,-43 -164,43 -158,273 3,119 37,223 37,223l0 0z"/>
    <path class="fil8" d="M2230 2296c-1,0 -3,-1 -3,-2 0,-1 -36,-98 -35,-253 2,-156 83,-240 84,-240 1,-2 3,-2 5,0 1,1 1,3 0,4 -1,1 -81,83 -82,236 -1,154 34,249 34,250 1,2 0,4 -2,5 0,0 -1,0 -1,0z"/>
    <path class="fil0" d="M2226 2291l126 72c27,16 63,9 81,-17 7,-11 11,-26 10,-44 -6,-66 -35,-81 0,-110 35,-30 44,-32 42,-60 -2,-28 -21,-40 -30,-51 -9,-12 -35,-35 -17,-69 17,-34 40,-68 5,-83 -22,-9 -57,3 -80,28 -23,26 -43,44 -65,50 -22,6 -68,7 -66,45 2,39 12,52 3,69 -18,32 -92,50 -9,170l0 0z"/>
    <path class="fil8" d="M2288 2330c-2,0 -3,-2 -3,-3 0,-3 -20,-229 136,-380 1,-1 4,-1 5,0 1,1 1,3 0,5 -154,148 -135,372 -135,374 1,2 -1,3 -3,4 0,0 0,0 0,0z"/>
    <path class="fil8" d="M2313 2135c-2,0 -3,-2 -3,-3 -5,-61 -48,-91 -48,-91 -1,-1 -2,-3 -1,-5 1,-1 3,-2 5,-1 2,2 45,33 50,96 1,2 -1,3 -3,4 0,0 0,0 0,0z"/>
    <path class="fil8" d="M2302 2173c0,0 -1,0 -2,0 -1,-2 -1,-4 0,-5 1,-2 40,-45 132,-34 2,1 3,2 3,4 0,2 -2,3 -4,3 -88,-11 -126,31 -126,31 -1,1 -2,1 -3,1z"/>
    <g>
     <path class="fil9" d="M1813 2684l-854 -493c-61,-35 -110,-128 -110,-208l0 -1830c0,-80 49,-117 110,-82l854 493c60,35 109,128 109,208l0 1830c0,80 -49,117 -109,82z"/>
     <path class="fil10" d="M1911 506l-854 -493c-26,-15 -49,-16 -68,-7l0 0 0 0c-2,1 -5,2 -7,4l-96 55c20,-11 45,-10 73,6l854 493c60,35 109,128 109,208l0 1830c0,42 -14,73 -35,87l94 -55 0 0c24,-13 40,-44 40,-89l0 -1830c0,-80 -49,-174 -110,-209z"/>
     <path class="fil11" d="M1922 772l0 1830c0,42 -14,73 -35,87l94 -55 0 0c24,-13 40,-44 40,-89l0 -1830c0,0 0,0 0,0l-99 57c0,0 0,0 0,0z"/>
     <polygon class="fil10" points="2021,857 1922,914 1922,958 2021,901 "/>
     <g>
      <path class="fil10" d="M1977 1152c-8,5 -16,0 -16,-12l0 -95c0,-12 8,-26 16,-31 9,-5 16,1 16,12l0 96c0,12 -7,25 -16,30z"/>
      <path class="fil9" d="M1961 1140l0 -95c0,-12 8,-26 16,-31 4,-2 8,-2 10,-1l0 0 -11 -6 0 0c-3,-1 -7,-1 -11,1 -9,5 -16,19 -16,30l0 96c0,6 2,11 6,13l0 0 12 6 0 0c-3,-2 -6,-6 -6,-13z"/>
     </g>
     <g>
      <path class="fil10" d="M1977 1383c-8,5 -16,0 -16,-12l0 -95c0,-12 8,-26 16,-31 9,-5 16,1 16,12l0 96c0,11 -7,25 -16,30z"/>
      <path class="fil9" d="M1961 1371l0 -95c0,-12 8,-26 16,-31 4,-2 8,-2 10,-1l0 0 -11 -6 0 0c-3,-1 -7,-1 -11,1 -9,5 -16,19 -16,30l0 96c0,6 2,11 6,13l0 0 12 6 0 0c-3,-2 -6,-6 -6,-13z"/>
     </g>
     <path class="fil12" d="M1783 615l-839 -485c-16,-9 -35,3 -35,20l0 1833c0,61 43,136 96,166l819 473c17,10 39,-2 39,-22l0 -1847c0,-51 -36,-113 -80,-138z"/>
     <path class="fil3" d="M1783 615l-839 -485c-16,-9 -35,3 -35,20l0 1833c0,61 43,136 96,166l819 473c17,10 39,-2 39,-22l0 -1847c0,-51 -36,-113 -80,-138z"/>
     <polygon class="fil9" points="1195,257 1208,312 1486,472 1534,447 "/>
     <g>
      <path class="fil11" d="M1276 310c0,9 -6,13 -14,8 -8,-4 -14,-15 -14,-25 0,-9 6,-12 14,-8 8,5 14,16 14,25z"/>
      <path class="fil11" d="M1464 426c-2,0 -3,-1 -4,-1l-143 -80c-4,-2 -5,-8 -3,-12 2,-4 8,-6 12,-3l142 79c5,3 6,8 4,12 -2,3 -5,5 -8,5z"/>
     </g>
    </g>
    <g>
     <path class="fil2" d="M1085 512c-9,-5 -15,-1 -15,10 0,11 6,23 15,28 5,3 11,3 16,0l14 25c-8,5 -20,5 -31,-2 -23,-12 -39,-40 -39,-65 0,-24 17,-32 40,-19 11,6 23,19 30,32l-14 11c-4,-9 -11,-17 -16,-20z"/>
     <path class="fil2" d="M1194 594c0,25 -16,34 -39,20 -23,-13 -40,-40 -40,-65 0,-25 17,-33 40,-20 23,13 39,41 39,65zm-54 -31l0 0c0,11 7,24 15,29 8,4 15,0 15,-12 0,-11 -7,-23 -15,-28 -8,-5 -15,0 -15,11z"/>
     <polygon class="fil2" points="1221,568 1250,627 1250,585 1271,597 1271,680 1251,669 1223,610 1223,653 1201,640 1201,557 "/>
     <polygon class="fil2" points="1342,638 1342,660 1321,648 1321,709 1297,696 1297,634 1277,622 1277,600 "/>
     <path class="fil2" d="M1388 736l-27 -15 -3 9 -25 -14 31 -66 24 15 29 100 -25 -15 -4 -14zm-6 -23l0 0 -7 -28 -8 20 15 8z"/>
     <path class="fil2" d="M1455 726c-8,-5 -15,-1 -15,10 0,11 7,23 15,28 5,3 12,3 17,0l13 25c-8,5 -20,5 -31,-2 -22,-13 -38,-40 -38,-65 0,-24 16,-33 39,-20 11,7 23,20 30,33l-13 11c-5,-9 -11,-17 -17,-20z"/>
     <polygon class="fil2" points="1550,758 1550,780 1530,768 1530,830 1506,816 1506,755 1486,743 1486,721 "/>
     <path class="fil2" d="M1621 861c6,3 10,0 10,-8l0 -48 24 14 0 48c0,22 -13,29 -34,17 -21,-13 -35,-35 -35,-57l0 -48 24 14 0 48c0,8 5,16 11,20z"/>
     <path class="fil2" d="M1694 861c-3,-2 -5,-2 -5,1 0,10 38,25 38,56 0,18 -14,18 -31,9 -12,-8 -26,-20 -36,-34l9 -16c7,11 20,25 27,29 4,2 6,2 6,-1 0,-11 -37,-25 -37,-55 0,-16 12,-20 31,-9 11,7 23,17 31,28l-8 16c-8,-9 -19,-20 -25,-24z"/>
    </g>
    <path class="fil6" d="M1824 146l62 36 0 -22c0,-2 0,-3 0,-5 0,-2 0,-3 0,-4l0 -1 0 0c2,-29 24,-40 51,-25 11,7 22,17 30,30 7,-40 39,-54 78,-32 43,25 78,86 78,136l0 47c0,7 4,14 10,18l37 22c16,9 26,26 26,45 0,17 -18,27 -33,19l-338 -196c-18,-10 -30,-30 -30,-51 0,-15 16,-24 29,-17l0 0z"/>
    <g>
     <g>
      <path class="fil13" d="M1595 1308l0 717c0,35 -39,57 -70,40l-385 -223 -69 -40c-14,-8 -27,-19 -38,-31 -25,-28 -39,-64 -39,-103l0 -716c0,-36 38,-58 69,-40l454 262c48,27 78,79 78,134l0 0z"/>
     </g>
     <path class="fil11" d="M1373 1732c0,0 72,120 20,255l-253 -145 233 -110z"/>
     <g>
      <path class="fil11" d="M1488 1184c0,44 -36,81 -81,81 -44,0 -81,-37 -81,-81 0,-45 37,-81 81,-81 45,0 81,36 81,81z"/>
      <g>
       <path class="fil11" d="M1408 956c0,0 25,-40 32,-37 8,3 -5,41 -5,41 0,0 38,8 31,18 -7,9 -53,7 -53,7l-5 -29z"/>
       <path class="fil11" d="M1425 1060c-17,130 -127,130 -127,130l-229 -101c0,0 -18,-15 -23,-50 -2,-12 -2,-26 0,-43 0,0 0,0 0,0 7,-55 48,-113 137,-132 18,-3 38,-5 60,-5 10,0 19,0 28,1 70,7 118,39 141,90 5,11 9,22 12,35 4,23 5,48 1,75z"/>
      </g>
     </g>
     <path class="fil12" d="M874 1312c0,0 -81,-3 -113,77 0,0 35,23 80,0 46,-24 33,-77 33,-77l0 0z"/>
     <path class="fil14" d="M874 1312c0,0 -81,-3 -113,77 0,0 35,23 80,0 46,-24 33,-77 33,-77l0 0z"/>
     <path class="fil15" d="M872 1350c0,0 -23,-100 -35,-101 -13,-2 -15,30 -14,48l-29 -62c-4,-8 -14,-11 -22,-7 -29,16 -79,64 28,183l72 -61 0 0z"/>
     <path class="fil1" d="M1167 1281l-17 -2c-36,-5 -71,10 -92,38l-103 137 -81 -142c0,0 -10,97 -113,77l111 186c30,51 102,56 139,10l95 -116 61 -188 0 0z"/>
     <path class="fil2" d="M1387 1601c-23,58 -26,69 -12,99 15,29 24,67 24,67 0,0 -107,120 -259,75l-69 -40c-14,-8 -27,-19 -38,-31l21 -155c1,-8 0,-16 -3,-24l-22 -64c-21,-64 -5,-134 44,-182l73 -71 193 24 29 8c39,11 64,50 58,90 -9,68 -25,167 -39,204l0 0z"/>
     <path class="fil1" d="M1270 1426l-38 -33c-9,-7 -20,-9 -30,-6l-47 17 -6 -27c-5,-17 -22,-27 -39,-22l-20 6 34 -66c11,-21 28,-39 49,-51l14 -7 111 6c0,0 41,17 41,56l-69 127 0 0z"/>
     <g>
      <g>
       <polygon class="fil15" points="1298,1292 1187,1378 1187,1102 1298,1102 "/>
      </g>
      <polygon class="fil15" points="1189,1269 1155,1404 1298,1292 "/>
     </g>
     <path class="fil16" d="M1187 1249c43,-17 88,-50 111,-106l0 -41 -111 0 0 147 0 0z"/>
     <path class="fil15" d="M1211 898c-42,0 -132,23 -142,134 -11,110 -1,196 56,204 57,8 190,-33 207,-176 18,-143 -80,-162 -121,-162l0 0z"/>
     <polygon class="fil16" points="1145,1078 1145,1143 1106,1132 "/>
     <g>
      <path class="fil11" d="M1200 1090c0,7 -6,13 -13,13 -7,0 -13,-6 -13,-13 0,-8 6,-14 13,-14 7,0 13,6 13,14z"/>
      <path class="fil11" d="M1113 1080c0,8 -6,14 -13,14 -8,0 -14,-6 -14,-14 0,-7 6,-13 14,-13 7,0 13,6 13,13z"/>
      <path class="fil11" d="M1083 1053l26 -16c0,0 -10,-10 -19,-4 -10,6 -7,20 -7,20z"/>
     </g>
     <path class="fil16" d="M1127 1170c0,0 21,2 35,-10 0,0 3,19 -13,23 -16,3 -22,-13 -22,-13z"/>
     <path class="fil11" d="M1104 935c0,0 16,153 223,157 0,0 63,-151 -61,-200 -124,-50 -162,43 -162,43z"/>
     <g>
      <path class="fil12" d="M1388 1070l0 0 0 0c0,0 0,0 0,-1l-25 -14 0 0c-10,-6 -23,-5 -38,3 -30,17 -54,59 -54,93 0,17 6,29 16,34l0 0 25 15c1,0 1,0 2,0l0 1 0 0c10,4 23,3 36,-5 30,-17 54,-58 54,-92 0,-17 -6,-29 -16,-34z"/>
      <path class="fil12" d="M1404 1104c0,34 -24,75 -54,92 -29,17 -53,3 -53,-30 0,-34 24,-76 53,-93 30,-17 54,-3 54,31z"/>
      <path class="fil14" d="M1404 1104c0,34 -24,75 -54,92 -29,17 -53,3 -53,-30 0,-34 24,-76 53,-93 30,-17 54,-3 54,31z"/>
      <path class="fil12" d="M1399 1102l0 0 -1 0c0,0 0,0 0,0l-17 -11 0 0c-7,-3 -16,-3 -26,3 -20,12 -36,40 -36,63 0,12 4,20 10,24l0 0 17 10c1,0 1,0 1,0l1 0 0 0c7,4 15,3 25,-3 20,-11 36,-40 36,-63 0,-11 -4,-20 -10,-23z"/>
      <path class="fil12" d="M1409 1125c0,23 -16,52 -36,63 -20,12 -37,2 -37,-21 0,-23 17,-51 37,-63 20,-12 36,-2 36,21z"/>
      <path class="fil17" d="M1409 1125c0,23 -16,52 -36,63 -20,12 -37,2 -37,-21 0,-23 17,-51 37,-63 20,-12 36,-2 36,21z"/>
     </g>
     <path class="fil12" d="M1309 868c-16,-13 -37,-20 -58,-20 -1,0 -3,0 -5,0 -23,0 -44,2 -63,6 4,0 8,0 12,0l-12 0 0 10 11 0c23,1 46,8 66,19 44,26 72,73 72,124l0 46c0,7 6,13 14,12 0,0 1,0 1,0l12 -4 0 0c-1,1 -2,1 -3,1 7,-1 12,-7 12,-14l0 -43c0,-76 -33,-117 -59,-137z"/>
     <g>
      <path class="fil12" d="M1237 1233c-5,0 -10,-1 -14,-3l-36 -17c-2,-1 -3,-3 -2,-6 1,-2 3,-3 5,-2l36 17c10,4 21,2 28,-5l35 -36c1,-2 4,-2 6,0 1,1 1,4 0,6l-35 36c-6,6 -15,10 -23,10z"/>
      <path class="fil14" d="M1237 1233c-5,0 -10,-1 -14,-3l-36 -17c-2,-1 -3,-3 -2,-6 1,-2 3,-3 5,-2l36 17c10,4 21,2 28,-5l35 -36c1,-2 4,-2 6,0 1,1 1,4 0,6l-35 36c-6,6 -15,10 -23,10z"/>
      <path class="fil12" d="M1196 1201c0,9 -7,17 -17,17 -9,0 -17,-8 -17,-17 0,-9 8,-17 17,-17 10,0 17,8 17,17z"/>
      <path class="fil14" d="M1196 1201c0,9 -7,17 -17,17 -9,0 -17,-8 -17,-17 0,-9 8,-17 17,-17 10,0 17,8 17,17z"/>
     </g>
     <path class="fil12" d="M1368 1005l0 43c0,7 -5,13 -12,14 -8,1 -15,-6 -15,-14l0 -43c0,-54 -29,-104 -76,-131 -25,-15 -53,-21 -82,-20 19,-4 40,-6 63,-6 2,0 4,0 5,0 21,0 42,7 58,20 26,20 59,61 59,137z"/>
     <path class="fil14" d="M1368 1005l0 43c0,7 -5,13 -12,14 -8,1 -15,-6 -15,-14l0 -43c0,-54 -29,-104 -76,-131 -25,-15 -53,-21 -82,-20 19,-4 40,-6 63,-6 2,0 4,0 5,0 21,0 42,7 58,20 26,20 59,61 59,137z"/>
     <path class="fil12" d="M1304 1799c0,0 -28,77 71,111 0,0 33,-48 0,-87 -32,-39 -71,-24 -71,-24z"/>
     <path class="fil18" d="M1304 1799c0,0 -28,77 71,111 0,0 33,-48 0,-87 -32,-39 -71,-24 -71,-24z"/>
     <path class="fil15" d="M1338 1802c0,0 -97,36 -97,50 1,14 42,4 42,4l-15 10c-16,10 -28,25 -35,43l0 0c-3,8 0,17 8,21l37 19c9,5 20,1 24,-8 4,-8 11,-14 20,-17 20,-7 58,-26 73,-79l-57 -43z"/>
     <path class="fil1" d="M1368 1307c0,0 -52,29 -25,117 28,87 80,223 80,223l-119 152c0,0 39,3 64,38 24,36 7,73 7,73l148 -190c28,-36 36,-83 21,-126l-63 -185c-16,-46 -52,-82 -98,-97l-15 -5z"/>
    </g>
    <path class="fil6" d="M2296 137l45 26 0 -16c0,-1 0,-2 0,-3 0,-2 0,-3 0,-4l0 0 0 0c1,-21 17,-29 37,-18 8,5 16,12 22,21 4,-28 28,-39 56,-22 32,18 57,62 57,98l0 34c0,6 3,11 8,14l26 15c12,7 19,20 19,33 0,12 -13,20 -24,14l-246 -142c-13,-8 -21,-22 -21,-38 0,-10 11,-17 21,-12l0 0z"/>
    <path class="fil2" d="M965 922c24,-29 38,-66 38,-107 0,-94 -76,-170 -170,-170 -94,0 -170,76 -170,170 0,94 76,170 170,170 32,0 62,-9 87,-24l83 36 -38 -75 0 0z"/>
    <g>
     <path class="fil8" d="M770 806c0,-3 -2,-4 -5,-4 -6,0 -13,4 -21,10l-9 -19c11,-7 22,-12 34,-12 16,0 28,9 28,21 0,9 -7,18 -15,26l-12 12 28 0 0 19 -60 0 0 -16 27 -27c3,-4 5,-7 5,-10z"/>
     <polygon class="fil8" points="847,783 829,826 836,826 836,812 859,812 859,826 868,826 868,844 859,844 859,859 836,859 836,844 803,844 803,828 823,783 "/>
     <path class="fil8" d="M939 821l0 38 -25 0 0 -31c0,-5 -3,-8 -7,-8 -5,0 -8,4 -8,10l0 29 -24 0 0 -81 24 0 0 30c4,-6 10,-10 18,-10 13,0 22,9 22,23z"/>
    </g>
    <g>
     <path class="fil0" d="M476 1025l-262 -151c-8,-5 -15,-5 -21,-2l0 0 0 0c-1,0 -2,0 -2,1l-57 33c0,0 0,0 0,0 -7,4 -12,14 -12,27l0 292c0,25 15,54 34,64l263 152c8,5 17,5 23,1 -1,0 -1,0 -1,0l57 -33 0 0c7,-4 12,-14 12,-27l0 -292c0,-25 -15,-54 -34,-65z"/>
     <path class="fil1" d="M501 1053c-7,-12 -15,-22 -25,-28l-262 -151c-8,-5 -15,-5 -21,-2l0 0 0 0c-1,0 -2,0 -2,1l-57 33c6,-3 13,-3 22,2l263 151c9,6 18,17 24,29l58 -35z"/>
     <path class="fil2" d="M452 1416c0,13 -4,22 -11,26l57 -33 0 0c7,-4 12,-14 12,-27l0 -292c0,-12 -4,-25 -9,-37l-58 35c6,11 9,24 9,36l0 292z"/>
     <g>
      <polygon class="fil12" points="254,1139 191,1036 191,1175 "/>
      <polygon class="fil12" points="313,1169 376,1278 376,1139 "/>
      <path class="fil12" d="M201 1031l65 106c0,0 0,1 0,1 1,0 1,1 1,1l19 31 16 -8c0,0 1,0 1,-1 1,0 1,0 2,0l66 -31 -170 -99 0 0z"/>
      <path class="fil12" d="M304 1173l-18 8c-1,1 -2,1 -2,1 -2,0 -4,-1 -5,-3l-19 -31 -64 37 171 98 -63 -110 0 0z"/>
      <polygon class="fil3" points="254,1139 191,1036 191,1175 "/>
      <polygon class="fil3" points="313,1169 376,1278 376,1139 "/>
      <path class="fil3" d="M201 1031l65 106c0,0 0,1 0,1 1,0 1,1 1,1l19 31 16 -8c0,0 1,0 1,-1 1,0 1,0 2,0l66 -31 -170 -99 0 0z"/>
      <path class="fil3" d="M304 1173l-18 8c-1,1 -2,1 -2,1 -2,0 -4,-1 -5,-3l-19 -31 -64 37 171 98 -63 -110 0 0z"/>
     </g>
    </g>
   </g>
  </g>
 </g>
</svg>
