<?xml version="1.0" encoding="UTF-8"?>
<!DOCTYPE svg PUBLIC "-//W3C//DTD SVG 1.1//EN" "http://www.w3.org/Graphics/SVG/1.1/DTD/svg11.dtd">
<!-- Creator: CorelDRAW X7 -->
<svg xmlns="http://www.w3.org/2000/svg" xml:space="preserve" width="0.414331in" height="0.309173in" version="1.1" style="shape-rendering:geometricPrecision; text-rendering:geometricPrecision; image-rendering:optimizeQuality; fill-rule:evenodd; clip-rule:evenodd"
viewBox="0 0 414 309"
 xmlns:xlink="http://www.w3.org/1999/xlink">
 <defs>
  <style type="text/css">
   <![CDATA[
    .str0 {stroke:#008453;stroke-width:1.38583}
    .str1 {stroke:#FF8464;stroke-width:1.52362}
    .fil0 {fill:#99CC33}
    .fil1 {fill:#FFCE9D}
    .fil2 {fill:white}
   ]]>
  </style>
 </defs>
 <g id="Layer_x0020_1">
  <metadata id="CorelCorpID_0Corel-Layer"/>
  <g id="_941505888">
   <path class="fil0 str0" d="M358 86c11,-3 6,-19 -4,-16 -4,1 -8,4 -6,9 0,4 5,8 10,7zm-159 17c3,-12 -13,-15 -16,-6 -3,12 13,16 16,6zm110 38c-18,2 -64,9 -68,9 -4,1 -5,1 -7,2l-5 5c-2,1 -3,2 -5,4 -2,1 -3,3 -5,4l1 7c0,-1 1,-2 2,-3 1,0 1,0 2,0l9 -1c7,-1 39,-6 63,-9 10,-1 19,-2 23,-3 1,0 2,0 3,0l1 0c22,-3 47,-7 69,-10 4,0 14,-1 18,-3 6,-2 4,-10 3,-14 0,-4 -1,-8 -1,-11 -2,-16 -5,-31 -7,-47 -2,-19 -6,-39 -8,-58 -1,-4 -1,-8 -3,-10 -3,-4 -6,-3 -10,-3l-60 8c-59,8 -96,14 -162,23 -5,0 -21,2 -24,3 -8,3 -5,12 -4,20 1,8 2,16 3,24 1,8 3,16 4,24 0,0 0,0 0,0l12 42c4,-2 7,-4 10,-6l-10 -65c4,0 8,-2 10,-4 5,-3 9,-7 11,-13 1,-3 1,-7 1,-11 14,-1 28,-4 42,-6 15,-1 30,-4 43,-5 0,0 0,0 0,0l-1 0c-10,4 -13,5 -21,13 -3,4 -3,4 -5,7 -12,16 -12,42 -3,61 17,36 76,36 91,-6 8,-23 -1,-52 -21,-67 -9,-7 -18,-9 -29,-10 4,-1 16,-2 21,-3 7,-1 15,-2 21,-3 4,0 42,-6 43,-5 0,1 1,3 1,4 1,5 5,8 8,11 6,5 12,5 19,5l9 64c-7,1 -12,5 -16,9 -5,7 -5,9 -5,19l-63 8c0,0 0,0 0,0z"/>
   <path class="fil1 str1" d="M57 243c-6,-6 -13,-16 -19,-22 -5,-6 -7,-11 -14,-10 -4,0 -5,2 -7,4 -2,2 -5,3 -7,5 -5,4 -11,7 -10,14 1,3 10,13 13,17l36 42c1,2 3,4 5,6 4,4 7,11 13,10 3,0 4,-1 6,-3l9 -7c1,-1 2,-1 3,-3 1,-1 2,-1 3,-2 4,-3 5,-8 2,-12l-33 -39zm160 -58c4,-7 3,-11 3,-13l-1 -7c-8,5 -17,8 -24,15 -4,4 -7,8 -10,13 -1,2 -5,10 -5,12 13,1 20,-6 27,-11l8 -6c1,-1 1,-2 2,-3zm-11 26c2,-3 4,-7 5,-11 -2,1 -2,1 -4,2 -11,8 -16,10 -30,9 -1,1 -1,2 -1,3 -1,2 -4,7 -4,8 9,1 18,-1 25,-5 2,-1 4,-2 5,-3 2,-1 3,-1 4,-3zm-17 24c6,-3 12,-6 14,-14 -3,1 -4,3 -7,4 -10,3 -16,4 -27,3 -1,1 -4,6 -5,8 8,0 16,2 25,-1zm40 -90c6,-10 7,-24 -5,-30 -4,-2 -9,-2 -13,-1 -9,1 -20,7 -26,12 -5,4 -7,5 -12,10 -28,28 -29,21 -56,35 0,0 -1,0 -1,0 -3,2 -3,6 -8,2 -4,-4 -3,-3 -3,-5 0,-10 29,-14 48,-24l-12 -42c-12,1 -33,6 -42,11 -4,2 -5,4 -7,7 -1,1 -2,2 -3,4l-32 53c-1,1 -18,31 -19,34 1,1 3,3 4,4l20 24c1,1 0,0 1,2l29 33c1,2 2,3 3,4 8,-2 16,-4 22,-8 8,-3 10,-4 17,-9 11,-9 21,-22 28,-35l3 -5c1,-1 1,-3 2,-5 5,-8 9,-21 14,-29 6,-9 15,-17 24,-22 9,-5 19,-10 24,-20z"/>
   <path class="fil2 str0" d="M277 59c3,0 5,-1 7,-1 1,0 5,-1 6,-1 1,-1 0,-5 -1,-6 0,-3 -2,-2 -4,-2l-32 5c-8,2 -8,0 -7,6 0,3 0,5 3,5 5,-1 12,-3 17,-1 1,1 3,2 3,3 -4,1 -9,2 -13,2 -9,2 -9,1 -8,6 1,4 0,4 10,2 4,0 9,-1 13,-2 0,1 0,3 -1,4 -2,3 -5,5 -9,6 -2,1 -3,1 -5,1 -6,1 -6,0 -5,5 0,1 0,4 1,4l8 7c1,1 1,2 2,2l11 9c1,1 7,7 8,7 1,1 9,-1 10,-1 2,0 2,-2 1,-3l-13 -11c0,-1 -1,-1 -1,-2 -1,0 -1,0 -1,-1 -1,0 -1,0 -1,0 0,-1 -1,-1 -1,-1l-7 -5c0,-1 -2,-2 -2,-3 7,-2 13,-6 16,-12 0,-2 1,-4 1,-5 0,-2 0,-2 1,-3 9,-1 9,0 8,-5 0,-4 0,-4 -3,-4 -3,1 -5,1 -7,1 -1,-1 -2,-2 -2,-3 -1,-1 -2,-3 -3,-3z"/>
  </g>
 </g>
</svg>
