<?xml version="1.0" encoding="UTF-8"?>
<!DOCTYPE svg PUBLIC "-//W3C//DTD SVG 1.1//EN" "http://www.w3.org/Graphics/SVG/1.1/DTD/svg11.dtd">
<!-- Creator: CorelDRAW X7 -->
<svg xmlns="http://www.w3.org/2000/svg" xml:space="preserve" width="0.354331in" height="0.314961in" version="1.1" style="shape-rendering:geometricPrecision; text-rendering:geometricPrecision; image-rendering:optimizeQuality; fill-rule:evenodd; clip-rule:evenodd"
viewBox="0 0 354 315"
 xmlns:xlink="http://www.w3.org/1999/xlink">
 <defs>
  <style type="text/css">
   <![CDATA[
    .fil0 {fill:none}
    .fil1 {fill:gray}
   ]]>
  </style>
 </defs>
 <g id="Layer_x0020_1">
  <metadata id="CorelCorpID_0Corel-Layer"/>
  <rect class="fil0" width="354" height="315"/>
  <g id="_1200726928">
   <path class="fil1" d="M121 174c19,-5 39,9 42,25 5,23 -9,39 -25,43 -44,11 -64,-55 -17,-68zm-6 131c0,0 1,1 1,1l26 2c0,-5 -1,-6 2,-10l3 -18 20 -8c9,4 16,13 25,16l17 -17c-18,-32 -19,-15 -11,-38 2,-5 1,-4 3,-7 8,-3 21,-2 28,-6 3,-6 2,-17 1,-24 -7,-2 -15,-3 -22,-4 -11,-2 -8,-5 -12,-15 -5,-10 -4,-6 2,-16 4,-4 8,-11 11,-16l-17 -17c-28,15 -15,22 -44,8l-4 -18c-3,-2 -2,-2 -1,-6l-2 -5 -25 0c-7,30 3,25 -17,34 -6,2 -7,4 -12,1 -8,-5 -12,-10 -20,-14 -5,3 -15,13 -18,17 4,8 13,18 16,25 -3,7 -6,12 -8,20l-29 5 -1 25c21,11 24,-11 38,26 -5,9 -12,17 -16,25 3,4 13,15 18,17 4,-3 15,-11 20,-14 5,-3 5,-2 11,1 16,7 11,0 17,30z"/>
   <path class="fil1" d="M246 56c36,-8 45,43 13,52 -16,4 -30,-7 -33,-19 -4,-17 7,-30 20,-33zm-22 -46l-3 1 -4 1 -2 2 1 3 2 19c-17,18 -8,10 -34,8l-7 16c4,4 15,10 19,12l0 19c-7,3 -13,8 -19,10l6 18c7,1 17,-2 24,-3 4,4 5,6 11,10l-5 24c5,2 13,6 18,7l10 -15c1,-5 -1,-5 8,-5 4,0 8,0 11,1 2,2 3,2 4,6 3,3 6,9 8,13l19 -7c-2,-10 -7,-19 -2,-26 8,-9 8,-8 22,-5 6,0 7,1 11,-2 5,-14 10,-15 -14,-26l0 -18c7,-3 13,-8 19,-10 -1,-8 -4,-13 -6,-19l-24 5c-3,-5 -10,-8 -10,-15 -1,-5 3,-13 3,-20l-14 -6 -3 0 -1 2 -2 2c0,2 1,2 -2,2 -1,2 -2,4 -3,6 -2,4 -1,3 -4,5l-17 1 -12 -19 -8 3z"/>
  </g>
 </g>
</svg>
