<?xml version="1.0" encoding="UTF-8"?>
<!DOCTYPE svg PUBLIC "-//W3C//DTD SVG 1.1//EN" "http://www.w3.org/Graphics/SVG/1.1/DTD/svg11.dtd">
<!-- Creator: CorelDRAW X7 -->
<svg xmlns="http://www.w3.org/2000/svg" xml:space="preserve" width="6.4in" height="6.37795in" version="1.1" style="shape-rendering:geometricPrecision; text-rendering:geometricPrecision; image-rendering:optimizeQuality; fill-rule:evenodd; clip-rule:evenodd"
viewBox="0 0 6400 6378"
 xmlns:xlink="http://www.w3.org/1999/xlink">
 <defs>
  <style type="text/css">
   <![CDATA[
    .fil12 {fill:#00649A;fill-rule:nonzero}
    .fil10 {fill:#202D34;fill-rule:nonzero}
    .fil7 {fill:#29444E;fill-rule:nonzero}
    .fil2 {fill:#2C5851;fill-rule:nonzero}
    .fil27 {fill:#2D1E17;fill-rule:nonzero}
    .fil9 {fill:#365864;fill-rule:nonzero}
    .fil24 {fill:#458986;fill-rule:nonzero}
    .fil29 {fill:#4C988D;fill-rule:nonzero}
    .fil1 {fill:#509C98;fill-rule:nonzero}
    .fil8 {fill:#84C2BA;fill-rule:nonzero}
    .fil21 {fill:#C86667;fill-rule:nonzero}
    .fil13 {fill:#D267CC;fill-rule:nonzero}
    .fil19 {fill:#D3E1FC;fill-rule:nonzero}
    .fil3 {fill:#E0E0E0;fill-rule:nonzero}
    .fil25 {fill:#E5ECFF;fill-rule:nonzero}
    .fil18 {fill:#E9F0FE;fill-rule:nonzero}
    .fil5 {fill:#ECECEC;fill-rule:nonzero}
    .fil4 {fill:#F0F0F0;fill-rule:nonzero}
    .fil0 {fill:whitesmoke;fill-rule:nonzero}
    .fil23 {fill:#FAFAFA;fill-rule:nonzero}
    .fil22 {fill:#FF8F8F;fill-rule:nonzero}
    .fil11 {fill:#FF9A78;fill-rule:nonzero}
    .fil6 {fill:#FFBEA8;fill-rule:nonzero}
    .fil17 {fill:white;fill-rule:nonzero}
    .fil28 {fill:white;fill-rule:nonzero}
    .fil14 {fill:black;fill-rule:nonzero;fill-opacity:0.050980}
    .fil26 {fill:black;fill-rule:nonzero;fill-opacity:0.101961}
    .fil16 {fill:black;fill-rule:nonzero;fill-opacity:0.149020}
    .fil32 {fill:#D267CC;fill-rule:nonzero;fill-opacity:0.200000}
    .fil15 {fill:black;fill-rule:nonzero;fill-opacity:0.301961}
    .fil20 {fill:#00649A;fill-rule:nonzero;fill-opacity:0.301961}
    .fil30 {fill:#2C5851;fill-rule:nonzero;fill-opacity:0.301961}
    .fil34 {fill:#D267CC;fill-rule:nonzero;fill-opacity:0.301961}
    .fil33 {fill:white;fill-rule:nonzero;fill-opacity:0.701961}
    .fil31 {fill:white;fill-rule:nonzero;fill-opacity:0.850980}
   ]]>
  </style>
 </defs>
 <g id="Layer_x0020_1">
  <metadata id="CorelCorpID_0Corel-Layer"/>
  <g id="_996065520">
   <path class="fil0" d="M5441 5009c1101,-636 1101,-1666 0,-2301 -1101,-636 -2885,-636 -3986,0 -1101,635 -1101,1665 0,2301 1101,635 2885,635 3986,0z"/>
   <g>
    <g>
     <polygon class="fil1" points="2564,4430 1734,4015 1404,4161 "/>
    </g>
    <g>
     <polygon class="fil1" points="2564,4430 1833,3941 1964,3753 "/>
    </g>
    <g>
     <polygon class="fil2" points="1833,3941 1847,4071 2564,4430 "/>
    </g>
    <g>
     <g>
      <path class="fil3" d="M1715 3916c2,0 4,0 5,-2 4,-3 4,-8 1,-11 -5,-7 -11,-13 -16,-19 -3,-4 -8,-4 -11,-1 -4,3 -4,8 -1,12 5,6 10,12 16,18 1,2 4,3 6,3z"/>
     </g>
    </g>
    <g>
     <g>
      <path class="fil3" d="M1649 3835c1,0 3,-1 4,-2 4,-3 5,-8 2,-12 -10,-12 -19,-25 -28,-39 -3,-3 -8,-4 -12,-2 -3,3 -4,8 -2,12 10,13 19,26 29,39 2,2 4,4 7,4zm-73 -107l0 0c1,0 3,0 4,-1 4,-2 5,-8 3,-11 -9,-14 -17,-28 -24,-42 -3,-4 -8,-5 -12,-3 -4,2 -5,7 -3,11 8,14 16,28 25,42 1,3 4,4 7,4zm-61 -113l0 0c1,0 2,-1 3,-1 4,-2 6,-7 4,-11 -7,-15 -13,-29 -19,-44 -2,-4 -7,-6 -11,-4 -4,1 -6,6 -5,10 7,15 13,30 20,45 2,3 5,5 8,5zm-48 -120l0 0c1,0 2,0 3,0 4,-2 6,-6 5,-11 -5,-15 -10,-31 -14,-46 -1,-4 -5,-7 -10,-5 -4,1 -7,5 -6,10 5,15 9,31 14,46 1,4 5,6 8,6zm-31 -125l0 0c0,0 1,0 1,0 5,-1 8,-5 7,-10 -3,-15 -6,-31 -8,-47 0,-4 -4,-8 -9,-7 -4,1 -7,5 -7,9 2,16 5,33 8,48 0,4 4,7 8,7zm-14 -128l0 0c0,0 0,0 0,0 4,0 8,-4 8,-8 -1,-13 -1,-25 -1,-38l0 -10c0,-5 -3,-8 -8,-9 0,0 0,0 0,0 -5,0 -8,4 -8,9l0 10c0,13 0,26 0,38 1,5 4,8 9,8zm3 -129l0 0c4,0 8,-3 8,-7 2,-16 4,-32 6,-48 1,-4 -2,-8 -7,-9 -4,-1 -9,3 -9,7 -3,16 -4,32 -6,48 0,5 3,9 7,9 1,0 1,0 1,0zm21 -127l0 0c3,0 7,-2 8,-6 3,-16 7,-31 12,-46 1,-5 -2,-9 -6,-11 -4,-1 -9,2 -10,6 -5,16 -9,31 -12,47 -1,5 1,9 6,10 0,0 1,0 2,0zm38 -122l0 0c3,0 6,-2 8,-6 6,-14 12,-29 19,-43 2,-5 0,-9 -4,-11 -4,-2 -9,-1 -11,4 -7,14 -14,29 -20,44 -1,4 1,9 5,11 1,0 2,1 3,1zm57 -116l0 0c3,0 6,-1 7,-4 9,-13 17,-27 26,-40 3,-4 2,-9 -2,-12 -4,-2 -9,-1 -11,3 -10,13 -18,27 -27,41 -2,4 -1,9 3,11 1,1 3,1 4,1zm75 -105l0 0c2,0 5,-1 6,-3 10,-12 21,-24 32,-36 3,-3 3,-8 -1,-11 -3,-3 -8,-3 -11,0 -11,12 -22,24 -32,37 -3,3 -3,8 1,11 1,2 3,2 5,2zm90 -92l0 0c1,0 3,-1 5,-2 12,-11 24,-21 37,-31 3,-3 4,-8 1,-12 -3,-3 -8,-4 -12,-1 -12,10 -25,21 -37,31 -3,3 -4,9 -1,12 2,2 4,3 7,3zm102 -78l0 0c2,0 3,-1 5,-1 13,-9 27,-17 41,-25 4,-2 5,-7 3,-11 -2,-4 -7,-5 -11,-3 -14,7 -28,16 -42,25 -4,2 -5,7 -3,11 2,3 4,4 7,4z"/>
     </g>
    </g>
    <g>
     <g>
      <path class="fil3" d="M1924 2415c0,0 1,0 2,0 9,-3 16,-5 23,-6 4,0 7,-5 6,-9 0,-5 -4,-8 -9,-7 -7,1 -15,3 -25,6 -4,2 -7,6 -5,11 1,3 4,5 8,5z"/>
     </g>
    </g>
   </g>
   <g>
    <path class="fil3" d="M1084 1953l40 238 -79 13 -40 -238 79 -13zm67 -93l0 0c3,-12 -11,-63 -12,-73 -2,-9 42,-20 62,11 20,32 26,60 23,94l109 -19c23,-4 37,16 39,29 3,18 -7,30 -13,35 0,0 23,2 27,27 3,14 -5,31 -21,37 0,0 9,8 12,25 2,12 -10,35 -25,37 0,0 6,10 8,24 3,17 -10,37 -34,41 -24,4 -181,31 -181,31l-34 -205c0,0 37,-81 40,-94z"/>
   </g>
   <g>
    <path class="fil4" d="M3775 846l-42 251 -83 -14 42 -251 83 14zm-111 -13l0 0 -37 216c0,0 -165,-28 -190,-32 -25,-4 -40,-25 -36,-43 2,-15 9,-26 9,-26 -16,-2 -29,-26 -27,-39 3,-18 12,-26 12,-26 -17,-7 -24,-25 -22,-40 5,-26 29,-28 29,-28 -6,-5 -17,-18 -13,-37 2,-14 16,-34 40,-30l115 19c-3,-35 3,-65 24,-98 22,-34 68,-22 67,-12 -2,10 -16,64 -13,77 2,13 42,99 42,99z"/>
   </g>
   <g>
    <path class="fil3" d="M1274 3670c2,0 5,-2 5,-5l29 -171c0,-2 0,-3 -1,-4 -1,-1 -2,-2 -3,-2l-57 -10c-3,0 -6,1 -6,4l-29 172c0,1 0,3 1,4 1,1 2,2 3,2l57 10c0,0 1,0 1,0zm23 -173l0 0 -27 162 -47 -8 27 -162 47 8zm-95 140l0 0c2,0 4,-2 5,-4l25 -148c0,-1 0,-2 -1,-3 -11,-23 -27,-61 -28,-67 -2,-6 4,-31 7,-41 1,-5 1,-8 2,-10 0,-2 0,-7 -9,-11 -11,-4 -34,-4 -46,16 -13,21 -19,40 -18,64l-72 -13c-20,-3 -32,13 -34,25 -2,11 2,19 5,24 -7,3 -14,9 -16,21 -1,10 3,23 13,30 -2,3 -4,8 -6,15 -1,9 6,25 16,31 -1,3 -3,8 -4,13 -2,15 8,32 29,36l131 22c0,0 0,0 1,0zm19 -152l0 0 -23 141 -126 -21c-14,-3 -22,-14 -21,-24 2,-9 6,-15 6,-15 1,-2 1,-4 0,-5 0,-2 -2,-3 -3,-3 -8,-2 -16,-15 -15,-21 2,-11 7,-15 7,-15 1,-1 2,-3 2,-5 -1,-1 -2,-3 -3,-4 -10,-3 -14,-13 -12,-21 2,-14 14,-15 14,-15 2,-1 4,-2 5,-4 1,-2 0,-4 -2,-5 -2,-2 -9,-9 -7,-21 1,-6 8,-19 22,-16l79 13c1,0 3,0 4,-1 1,-2 2,-3 2,-5 -2,-24 2,-43 16,-64 6,-10 16,-12 22,-13 6,0 11,2 13,3 0,2 -1,4 -1,7 -5,20 -9,39 -7,46 2,9 24,57 28,68z"/>
   </g>
   <g>
    <path class="fil3" d="M1420 2536c1,0 3,-1 4,-2l22 -24c31,-32 64,-80 50,-127 -4,-15 -15,-28 -30,-36 -14,-8 -31,-10 -47,-5 -21,6 -37,24 -42,44 -16,-14 -39,-20 -60,-13 -32,10 -51,44 -41,77 14,46 68,68 111,78l32 8c0,0 1,0 1,0zm17 -186l0 0c9,0 17,2 25,6 12,6 21,17 25,30 12,42 -19,87 -48,117l-21 22 -29 -7c-40,-10 -91,-30 -103,-71 -9,-27 7,-56 34,-64 21,-7 43,1 56,18 2,2 4,2 6,2 2,-1 3,-3 4,-5 1,-21 16,-40 36,-46 5,-2 10,-2 15,-2z"/>
   </g>
   <g>
    <path class="fil3" d="M3652 1667c0,0 0,0 0,0l48 -4c65,-7 148,-28 176,-92 10,-22 11,-46 2,-68 -8,-23 -25,-40 -47,-50 -30,-13 -65,-9 -91,11 -2,-32 -22,-61 -52,-75 -45,-20 -98,0 -117,45 -29,64 10,140 48,192l29 39c1,2 2,2 4,2zm143 -211l0 0c11,0 22,2 32,7 19,8 34,24 42,43 7,20 7,41 -2,60 -27,60 -106,80 -168,86l-45 5 -26 -37c-37,-50 -74,-123 -48,-182 18,-39 64,-57 104,-39 30,13 48,44 46,76 0,3 1,5 3,5 2,1 4,1 6,-1 15,-15 36,-23 56,-23z"/>
   </g>
   <g>
    <path class="fil4" d="M1031 3020l50 -8c66,-10 151,-36 176,-104 17,-45 -6,-96 -51,-113 -36,-14 -74,-3 -98,24 0,-36 -21,-69 -57,-83 -45,-17 -96,6 -113,51 -25,66 19,142 61,194l32 39z"/>
   </g>
   <g>
    <g>
     <path class="fil3" d="M2373 3341c-46,-27 -84,-106 -84,-177 0,-71 38,-107 84,-80 46,26 84,105 84,177 0,71 -38,107 -84,80zm-136 32l0 0c4,-34 24,-49 48,-36l176 102c24,14 44,52 47,90l9 86c2,20 -8,32 -20,24l-222 -128 -4 -38c-3,-35 -16,-68 -34,-92l0 -8z"/>
    </g>
    <g>
     <path class="fil4" d="M2121 3280c-46,-27 -83,-106 -83,-177 0,-71 37,-107 83,-81 46,27 84,106 84,177 0,71 -38,107 -84,81zm-144 108l0 0 9 -77c3,-34 24,-49 47,-35l176 102c24,13 44,52 48,90l8 86c2,20 -8,31 -20,24l-248 -143c-12,-7 -21,-29 -20,-47z"/>
    </g>
   </g>
   <g>
    <path class="fil5" d="M4483 4004c-328,190 -328,497 0,686 328,189 860,189 1187,0 328,-189 328,-496 0,-686 -327,-189 -859,-189 -1187,0z"/>
   </g>
   <g>
    <g>
     <path class="fil6" d="M5350 4222c-55,23 -152,31 -185,-10 -2,-95 -72,-516 -72,-516l287 0 -30 526z"/>
     <path class="fil4" d="M5387 4292l-1 -38c0,0 -19,-10 -26,30 -6,39 12,214 -30,270 -42,56 -222,-18 -226,-53 0,14 -3,85 29,134 32,49 140,31 179,14 38,-18 58,-57 68,-99 10,-44 7,-80 -2,-150 -8,-63 9,-108 9,-108z"/>
     <g>
      <path class="fil7" d="M5159 4186c-1,10 -1,20 -2,30 -1,21 -3,41 -6,62 -11,72 -44,155 -47,228 0,21 6,55 20,81 17,32 58,62 89,64 63,2 88,-16 112,-46 48,-61 61,-100 50,-169 -6,-39 -11,-64 -9,-104 1,-18 19,-68 20,-78 2,-15 -5,-51 -9,-72 -1,-4 -4,-17 -5,-22 -4,-21 1,-34 -7,-44 -4,-5 -8,-5 -8,-5l-2 26c-1,16 -7,14 -8,26 -1,17 3,35 1,40 -3,5 -3,0 -8,-4 -4,-4 -11,-3 -16,9 0,0 0,-28 -4,-33 -11,-14 -65,-30 -80,-30 -28,0 -80,22 -81,41z"/>
     </g>
     <path class="fil8" d="M5360 4284c-19,44 0,145 -11,141 -11,-5 -25,-26 -25,-26l-14 33c0,0 22,47 22,60 -1,13 -18,42 -53,57 -35,14 -98,5 -118,-5 -21,-10 -43,-45 -45,-60 -1,-15 16,-39 16,-39l-1 -43 -10 4c-8,34 -15,68 -17,100 0,21 6,55 20,81 17,32 58,62 89,64 63,2 88,-16 112,-46 48,-61 61,-100 50,-169 -6,-39 -11,-64 -9,-104 1,-18 19,-68 20,-78 2,-15 -5,-51 -9,-72 7,42 3,57 -17,102z"/>
     <path class="fil8" d="M5215 4459c-27,-2 -64,-5 -63,-54 1,-50 -2,-117 -2,-117l0 0c-5,28 -13,57 -21,87l0 0c0,0 -15,75 3,100 19,25 138,25 165,7 27,-19 32,-58 39,-128 6,-69 12,-151 12,-151 -3,5 -3,0 -8,-4 -4,-4 -11,-3 -16,9 -4,46 -20,181 -26,209 -5,29 -56,45 -83,42z"/>
     <path class="fil3" d="M5137 4441l4 21c76,-53 166,-48 166,-48l7 -25c-125,-4 -177,52 -177,52z"/>
     <path class="fil3" d="M5144 4374l-1 28c76,-53 177,-49 177,-49l4 -28c-125,-4 -180,49 -180,49z"/>
     <path class="fil3" d="M5149 4318l-1 28c78,-60 178,-64 178,-64l3 -22c-125,-5 -180,58 -180,58z"/>
     <path class="fil3" d="M5150 4253l-1 28c78,-61 185,-44 185,-44l3 -26c-120,-19 -187,42 -187,42z"/>
     <path class="fil9" d="M5154 4633c13,6 5,-47 28,-50 24,-3 85,-11 89,3 3,15 10,49 21,46 11,-4 50,-7 68,-41 18,-35 25,-72 23,-109 -1,-41 -12,-118 -8,-148 5,-34 12,-42 12,-42l0 24c1,6 -3,13 -5,18 -5,16 -2,60 5,106 8,60 0,119 -12,144 -28,61 -42,97 -154,101 -98,4 -123,-103 -117,-165 6,37 7,96 50,113z"/>
     <path class="fil0" d="M5141 4462c0,0 89,-5 156,4l6 -22c0,0 -82,-24 -166,-3l4 21z"/>
     <path class="fil0" d="M5303 4444c0,0 -21,-61 -159,-70 -4,9 -4,19 -1,28 0,0 105,7 154,64l6 -22z"/>
     <path class="fil0" d="M5314 4389c0,0 -27,-62 -165,-71 -6,13 -5,22 -1,28 0,0 111,11 159,68l7 -25z"/>
     <path class="fil0" d="M5324 4325c0,0 -36,-63 -174,-72 -4,13 -4,21 -1,28 0,0 123,15 171,72l4 -28z"/>
     <path class="fil0" d="M5329 4260c0,0 -36,-56 -174,-65 -4,10 -5,19 -1,26 0,0 123,3 172,61l3 -22z"/>
     <g>
      <path class="fil6" d="M4837 3924c-35,88 -111,68 -197,19l-21 -561 286 56 -68 486z"/>
     </g>
     <g>
      <path class="fil4" d="M4896 4121c-26,31 -73,29 -128,49 -9,3 -19,8 -28,13 0,0 0,0 0,0 -49,28 -102,79 -196,94 -112,18 -202,-10 -220,-25 -19,-16 -18,-28 -20,-50 26,30 91,44 169,39 77,-5 125,-39 199,-95 62,-47 92,-50 124,-58 7,-1 13,-2 20,-5 39,-12 70,-26 77,-48 1,-1 1,-1 1,-2 0,0 8,51 2,88z"/>
     </g>
     <g>
      <g>
       <g>
        <path class="fil7" d="M4685 3901c-10,-10 -32,-24 -41,-24 -9,0 -30,10 -43,27 -8,11 -18,33 -32,51 -45,58 -59,76 -143,130 -23,14 -85,51 -107,66 -20,13 -28,61 16,80 38,17 164,35 256,-13 95,-48 122,-102 193,-115 44,-8 100,-31 109,-53 4,-50 1,-68 -15,-107 -8,-19 -11,-37 -10,-57 0,-14 0,-27 -10,-35 -5,-4 -10,-5 -10,-5 -1,2 -4,22 -4,22 -3,4 -6,5 -12,11 -9,8 -20,12 -9,31 9,17 -2,34 -28,26 -11,-4 -28,-14 -38,-19 -8,-4 -28,-10 -39,-7 -15,5 -19,25 -31,41 8,-17 17,-31 -2,-50z"/>
       </g>
      </g>
     </g>
     <g>
      <path class="fil8" d="M4591 4218c95,-48 122,-102 193,-115 44,-8 100,-31 109,-53 4,-41 4,-62 -8,-88 -3,45 -43,43 -95,49 -52,7 -111,96 -144,97 -33,1 -107,-20 -107,-20l-33 25c16,22 84,24 61,39 -21,14 -48,10 -127,23 -48,8 -103,-18 -93,-42 -12,7 -22,13 -28,18 -20,13 -28,61 16,80 38,17 164,35 256,-13z"/>
     </g>
     <g>
      <path class="fil3" d="M4896 4121c-26,31 -73,29 -128,49 -9,3 -19,8 -28,13 0,0 0,0 0,0 -12,7 -12,-3 -3,-18 12,-20 34,-53 59,-77 11,-9 23,-17 37,-20 44,-9 55,-21 60,-33 1,-1 2,-2 2,-3 0,0 7,52 1,89z"/>
     </g>
     <g>
      <path class="fil8" d="M4885 4101c3,16 3,19 -10,25 -13,6 -51,19 -79,26 -28,7 -24,-2 -25,-8 0,-5 46,-36 58,-42 12,-7 56,-1 56,-1z"/>
     </g>
     <g>
      <path class="fil9" d="M4768 4170c-9,3 -19,8 -28,13 0,0 0,0 0,0 -49,28 -102,79 -196,94 -19,3 -37,5 -54,5l-20 1c-33,1 -62,-4 -84,-23 -10,-9 1,-56 -9,-60 -31,0 -57,-6 -74,-15 0,0 -11,56 8,77 36,37 150,47 239,31 94,-17 144,-62 183,-88 44,-28 90,-27 129,-42 22,-9 33,-23 33,-23l1 -19c-26,31 -73,29 -128,49z"/>
     </g>
     <g>
      <g>
       <path class="fil8" d="M4693 3999c37,-38 82,-72 82,-72 -7,-4 -13,-8 -18,-10 -8,-4 -28,-10 -39,-7 -15,5 -19,25 -31,41 -28,43 -148,127 -179,143 -31,16 -76,-13 -76,-13l-1 0c-2,2 -4,3 -5,4 -10,6 -27,17 -46,28l0 0c0,0 51,49 125,22 75,-26 150,-99 188,-136z"/>
      </g>
     </g>
     <g>
      <path class="fil3" d="M4459 4062c27,-18 82,-20 121,9l-19 13c0,0 -24,-17 -67,-10 -43,7 -78,17 -78,17l43 -29z"/>
     </g>
     <g>
      <path class="fil3" d="M4504 4029c26,-18 99,-23 126,-4l-17 18c0,0 -27,-12 -70,-5 -43,7 -71,15 -71,15l32 -24z"/>
     </g>
     <g>
      <path class="fil3" d="M4538 3994c26,-18 103,-28 136,-9l-18 19c0,0 -14,-9 -59,-6 -44,2 -82,20 -82,20l23 -24z"/>
     </g>
     <g>
      <path class="fil3" d="M4572 3948c27,-18 109,-36 149,-7 -2,9 -12,16 -23,19 0,0 -14,-9 -59,-6 -44,2 -86,21 -86,21l19 -27z"/>
     </g>
     <g>
      <path class="fil0" d="M4416 4091c0,0 57,5 92,29 0,0 14,-3 18,-12 0,0 -30,-36 -84,-34 -20,2 -26,17 -26,17z"/>
     </g>
     <g>
      <path class="fil0" d="M4459 4062c0,0 45,12 53,56 0,0 15,-4 20,-14 0,0 -17,-42 -51,-56 -17,3 -22,14 -22,14z"/>
     </g>
     <g>
      <path class="fil0" d="M4504 4029c0,0 47,14 57,55 0,0 15,-4 19,-13 0,0 -9,-48 -57,-61 -16,4 -19,19 -19,19z"/>
     </g>
     <g>
      <path class="fil0" d="M4545 3985c0,0 51,13 68,58 0,0 15,-7 17,-18 0,0 -20,-48 -67,-61 -17,3 -18,21 -18,21z"/>
     </g>
     <g>
      <path class="fil0" d="M4582 3937c0,0 58,21 75,67 0,0 15,-7 17,-19 0,0 -30,-60 -78,-73 -16,10 -14,25 -14,25z"/>
     </g>
    </g>
    <g>
     <g>
      <path class="fil7" d="M5325 2090c51,375 33,927 43,1064 7,86 23,155 22,332 -1,179 -16,382 -16,382 0,0 -146,71 -257,10 0,0 -58,-396 -97,-613 -34,-192 -83,-541 -83,-541l-32 373c0,0 17,205 -2,374 -18,159 -39,257 -39,257 0,0 -106,73 -232,10 0,0 -50,-571 -53,-664 -5,-107 13,-1089 13,-1089l733 105z"/>
     </g>
     <g>
      <path class="fil9" d="M5095 3751c0,0 31,25 143,20 111,-5 147,-32 147,-32l-14 183c0,0 -47,30 -128,31 -80,1 -122,-31 -122,-31l-26 -171z"/>
     </g>
     <g>
      <path class="fil9" d="M4892 3576c0,0 -57,20 -149,23 -92,3 -129,-24 -129,-24l16 169c0,0 30,31 110,31 81,-1 125,-35 125,-35l27 -164z"/>
     </g>
     <g>
      <path class="fil10" d="M4937 2724l-34 -300c0,0 -143,-41 -222,-148 0,0 5,117 166,192l50 265 8 364 32 -373z"/>
     </g>
    </g>
    <g>
     <g>
      <path class="fil6" d="M3967 909c-8,-42 -12,-59 -6,-71 5,-8 10,-12 16,-11 -2,-13 -2,-34 19,-38 0,0 -1,-10 -2,-20 -2,-16 6,-27 17,-28 -10,-28 -9,-50 5,-55 5,-2 31,18 46,32 51,49 51,28 89,120 13,32 39,77 49,129 5,30 -15,129 16,205 25,62 76,155 145,271 0,0 61,-57 132,-133 129,-136 138,-163 231,-182 94,43 45,251 -11,350 0,0 -150,142 -316,252 -113,75 -170,60 -211,-24 -56,-116 -136,-418 -152,-474 -14,-52 -49,-58 -60,-110 -16,-76 11,-125 4,-160 -3,-14 -7,-32 -11,-53z"/>
     </g>
     <g>
      <path class="fil11" d="M4361 1443c36,62 55,101 46,168 27,-59 9,-128 -28,-186l-18 18z"/>
     </g>
    </g>
    <g>
     <g>
      <path class="fil11" d="M4075 1011c-37,36 -47,115 -21,158 -37,-30 -46,-109 21,-158z"/>
     </g>
     <g>
      <path class="fil11" d="M4149 834c1,2 1,3 2,4 2,6 5,12 7,18l-10 65c0,0 9,9 20,21 11,11 19,24 21,48l-57 -42 17 -114z"/>
     </g>
    </g>
    <g>
     <path class="fil12" d="M4738 1121c-69,16 -89,23 -128,59 -40,37 -207,217 -207,217 0,0 56,11 104,86 49,75 46,137 46,137 52,-35 104,-81 165,-141 0,0 136,-244 20,-358z"/>
    </g>
    <g>
     <g>
      <g>
       <path class="fil13" d="M3973 577l186 107c6,4 9,10 9,16l-62 429c-1,7 -6,14 -12,16 -6,3 -16,2 -22,-1l-185 -108c-6,-3 -10,-11 -10,-17l62 -428c1,-6 6,-13 12,-16 6,-2 16,-2 22,2z"/>
      </g>
      <g>
       <path class="fil14" d="M3973 577l186 107c6,4 9,10 9,16l-62 429c-1,7 -6,14 -12,16 -6,3 -16,2 -22,-1l-185 -108c-6,-3 -10,-11 -10,-17l62 -428c1,-6 6,-13 12,-16 6,-2 16,-2 22,2z"/>
      </g>
      <g>
       <path class="fil13" d="M4075 1145c6,2 14,2 19,0 6,-2 12,-9 12,-16l62 -429c0,-2 0,-5 -2,-8l-20 8c3,4 4,8 4,12l-61 425c-1,7 -7,11 -14,8z"/>
      </g>
      <g>
       <path class="fil15" d="M4075 1145c6,2 14,2 19,0 6,-2 12,-9 12,-16l62 -429c0,-2 0,-5 -2,-8l-20 8c3,4 4,8 4,12l-61 425c-1,7 -7,11 -14,8z"/>
      </g>
      <g>
       <path class="fil13" d="M4142 696c5,3 9,10 8,16l-61 425c-1,8 -9,11 -17,7l-185 -108c-6,-3 -10,-11 -10,-17l62 -428c1,-6 6,-8 12,-5l191 110z"/>
      </g>
      <g>
       <path class="fil16" d="M4142 696c5,3 9,10 8,16l-61 425c-1,8 -9,11 -17,7l-185 -108c-6,-3 -10,-11 -10,-17l62 -428c1,-6 6,-8 12,-5l191 110z"/>
      </g>
      <g>
       <path class="fil10" d="M4130 721c6,4 10,11 9,17l-55 382c0,6 -6,8 -11,5l-175 -101c-6,-4 -10,-11 -9,-17l55 -381c1,-6 6,-9 12,-5l174 100z"/>
      </g>
      <g>
       <g>
        <g>
         <g>
          <path class="fil17" d="M4128 744l0 -3c0,0 0,-1 0,-1l-1 0c0,0 0,0 0,1l-1 2c0,1 1,1 1,1l0 0c0,1 1,0 1,0z"/>
         </g>
         <g>
          <path class="fil17" d="M4125 742l1 -4c0,0 0,-1 0,-1l-1 0c0,0 0,0 0,1l-1 4c0,0 0,1 1,1l0 0c0,0 0,0 0,-1z"/>
         </g>
         <g>
          <path class="fil17" d="M4123 741l1 -6c0,0 0,-1 0,-1l-1 0c0,0 0,0 0,1l-1 6c0,0 0,1 0,1l0 0c1,0 1,0 1,-1z"/>
         </g>
         <g>
          <path class="fil17" d="M4121 740l1 -10c0,-1 0,-1 0,-1l0 0c0,-1 -1,0 -1,0l-1 10c0,1 0,1 0,1l0 1c1,0 1,-1 1,-1z"/>
         </g>
        </g>
        <g>
         <g>
          <path class="fil17" d="M4115 737c0,0 0,0 0,0l0 -2 3 2c0,0 0,0 0,0l0 -1c0,0 0,0 0,0 0,0 0,0 0,-1l-2 -6c0,-1 0,-1 0,-1 0,0 0,0 0,0l-1 0c0,0 0,0 0,0 0,0 0,0 0,0l-1 5 0 0c0,0 0,0 -1,0 0,0 0,0 0,0l0 1c0,0 0,0 0,0 0,0 0,0 1,0l0 1 0 1c0,0 0,0 0,1 0,0 0,0 0,0l1 0c0,0 0,0 0,0zm0 -3l0 0 1 -4 1 5 -2 -1z"/>
         </g>
         <g>
          <path class="fil17" d="M4112 734c1,0 1,-1 1,-3 0,-1 0,-2 0,-3 -1,-1 -1,-2 -2,-3 0,0 -1,0 -1,0 0,0 -1,0 -1,0 0,0 0,0 0,0 0,0 0,0 0,0l0 1c0,0 0,0 0,0 0,0 0,0 0,0 1,0 1,0 2,0 0,1 1,1 1,2 0,1 0,2 0,3 0,1 0,2 -1,2 0,1 -1,1 -1,0 0,0 -1,0 -1,0 0,0 0,-1 0,-1l0 -2 1 0c0,0 0,0 0,0 0,0 0,0 0,0l1 0c0,0 0,-1 -1,-1 0,0 0,0 0,0l-1 -1c0,0 -1,0 -1,0 0,0 0,0 0,1l0 3c0,0 0,0 0,0 0,0 0,0 0,1 0,0 1,1 2,1 1,1 1,1 2,0z"/>
         </g>
        </g>
        <g>
         <g>
          <path class="fil17" d="M3954 634c0,0 0,0 1,0l7 4c1,1 1,2 1,3l-1 6c0,0 0,1 0,1 -1,0 -1,0 -1,0 0,1 0,1 0,0l-8 -4c-1,0 -1,-2 -1,-3l1 -5c0,-1 0,-1 1,-2zm7 13l0 0c1,0 1,0 1,0l0 -5c1,-1 0,-2 0,-3l-8 -4c0,0 0,0 0,0 0,0 0,0 0,0 0,0 0,0 0,1l-1 5c0,1 0,2 0,2l8 5c0,0 0,0 0,-1z"/>
         </g>
         <g>
          <g>
           <path class="fil17" d="M3958 638l-1 6 4 2c0,0 0,0 0,0 0,0 0,0 0,0l1 -4c0,-1 0,-2 -1,-2l-3 -2z"/>
          </g>
         </g>
         <g>
          <g>
           <path class="fil17" d="M3953 636c-1,0 -1,0 -1,1l0 1c-1,2 0,3 0,3l0 0 1 -5c0,0 0,0 0,0z"/>
          </g>
         </g>
        </g>
        <g>
         <g>
          <g>
           <path class="fil17" d="M4098 725c0,2 0,3 1,3 1,1 1,0 2,-1 0,-1 -1,-2 -2,-3 0,0 -1,0 -1,1z"/>
          </g>
         </g>
         <g>
          <g>
           <g>
            <path class="fil17" d="M4100 721c1,1 2,3 3,5 0,0 0,0 0,1l0 0c-1,0 -1,-1 -1,-1 -1,-2 -1,-3 -2,-4 -1,0 -2,0 -3,1 0,0 -1,0 -1,0l0 0c0,0 0,-1 0,-1 1,-2 2,-2 4,-1z"/>
           </g>
          </g>
         </g>
         <g>
          <g>
           <g>
            <path class="fil17" d="M4100 718c3,1 4,4 5,7 0,0 0,0 0,1l0 0c-1,0 -1,-1 -1,-1 -1,-3 -2,-5 -4,-6 -2,-1 -3,0 -5,1 0,0 0,0 0,0 -1,-1 -1,-1 0,-1 1,-2 3,-3 5,-1z"/>
           </g>
          </g>
         </g>
        </g>
        <g>
         <g>
          <path class="fil17" d="M4042 695c0,0 0,0 0,0 0,0 0,0 0,0l1 0c0,0 0,0 0,0 0,0 0,0 0,0l1 -7 1 2c0,1 0,1 0,1 0,0 1,0 1,0l0 -1c0,0 0,0 0,0 0,0 0,0 0,0l-2 -3c0,-1 0,-1 0,-1 0,0 0,0 0,0l0 0c0,0 -1,0 -1,0 0,0 0,0 0,0l-1 9z"/>
         </g>
         <g>
          <path class="fil17" d="M4041 688c0,0 0,0 0,0 0,0 0,0 0,0l-1 1c0,0 0,0 0,0 0,0 1,0 1,0l0 1c0,0 0,0 0,0 0,0 0,-1 0,-1l1 -1c0,0 0,0 0,0 0,0 -1,0 -1,0l0 0zm-1 4l0 0c0,0 0,0 0,0 0,0 0,0 0,0l0 1c0,0 0,0 0,0 0,1 0,1 0,1l1 0c0,0 0,0 0,0 0,0 0,0 0,0l0 -1c0,0 0,0 0,0 0,0 0,0 0,-1l-1 0z"/>
         </g>
         <g>
          <path class="fil17" d="M4036 691c0,0 0,0 0,0 0,0 0,0 0,0l0 -2 3 2c0,0 0,0 0,0 0,0 0,0 0,0l0 -1c0,0 0,0 0,0 0,0 0,0 0,0l-2 -7c0,0 0,-1 0,-1 0,0 0,0 0,0l-1 0c0,0 0,0 0,0 0,0 0,0 0,0l-1 6 0 -1c0,0 -1,0 -1,0 0,0 0,0 0,0l0 1c0,0 0,0 0,0 0,0 0,0 0,0l1 1 0 1c0,1 0,1 0,1 0,0 0,0 0,0l1 0zm0 -3l0 0 1 -4 1 5 -2 -1z"/>
         </g>
         <g>
          <path class="fil17" d="M4033 687c0,0 0,0 0,0 -1,1 -1,1 -1,1 0,0 0,0 0,0 0,0 -1,0 -1,-1 0,0 0,0 0,0 -1,0 -1,0 -1,-1 0,0 0,0 0,0 0,0 0,-1 0,-1 0,0 0,0 0,-1 0,0 0,0 0,0 1,0 1,0 1,0 0,0 0,0 0,0l1 1c0,0 0,0 0,0 0,0 1,0 1,0l0 -1c0,0 0,0 0,0 0,0 0,0 0,0l-2 -4 3 2c0,0 0,0 0,0 0,0 0,0 0,-1l0 0c0,0 0,0 0,0 0,0 0,0 0,0l-4 -3c0,0 0,0 0,0 0,1 0,1 0,1l0 0c0,0 0,0 0,0 0,0 0,1 0,1l1 3c0,0 0,0 0,0 -1,0 -1,0 -1,0 0,0 -1,0 -1,1 0,0 0,0 0,1 0,0 0,0 0,1 0,0 0,1 0,1 1,0 1,1 1,1 0,0 1,0 1,1 0,0 1,0 1,0 0,0 1,0 1,0 0,0 0,0 0,-1 0,0 0,0 1,0 0,0 0,0 0,-1 -1,0 -1,0 -1,0l0 0c0,0 0,0 0,0 0,0 0,0 0,0z"/>
         </g>
        </g>
       </g>
      </g>
      <g>
       <g>
        <path class="fil10" d="M4058 662l-31 -18c-2,-1 -4,-1 -4,1 0,2 1,4 3,5l31 18c1,1 3,1 3,-1 1,-2 -1,-4 -2,-5z"/>
       </g>
       <g>
        <g>
         <path class="fil10" d="M4004 631c-1,-1 -3,-1 -3,1 0,2 1,4 2,5 2,1 4,1 4,-1 0,-2 -1,-4 -3,-5z"/>
        </g>
        <g>
         <path class="fil10" d="M3992 624c-2,-1 -3,-1 -4,1 0,2 1,4 3,5 2,1 3,1 4,-1 0,-2 -1,-4 -3,-5z"/>
        </g>
        <g>
         <path class="fil10" d="M4092 682c-1,-1 -3,-1 -3,1 -1,2 1,4 2,5 2,1 4,1 4,-1 0,-2 -1,-4 -3,-5z"/>
        </g>
        <g>
         <path class="fil10" d="M4080 674c-2,-1 -4,0 -4,2 0,2 1,4 3,5 2,1 3,0 3,-2 1,-1 -1,-4 -2,-5z"/>
        </g>
       </g>
      </g>
     </g>
     <g>
      <g>
       <g>
        <path class="fil13" d="M4072 971c1,0 1,-1 2,-1 1,0 2,-1 2,-3l17 -121c1,-2 -1,-5 -3,-6l-137 -80c-2,0 -3,0 -4,0 -1,1 -2,2 -2,3l-18 121c0,2 1,5 4,7l137 79c1,0 1,1 2,1zm-121 -208l0 0 137 79c1,1 2,3 2,4l-17 121c0,0 0,0 0,0 -1,0 -1,0 -2,0l-137 -79c-1,-1 -2,-2 -2,-4l18 -120c0,-1 0,-1 0,-1 0,0 1,0 1,0z"/>
       </g>
       <g>
        <g>
         <g>
          <g>
           <path class="fil13" d="M4018 911c3,0 7,0 10,-2 10,-4 16,-14 18,-27 2,-12 0,-25 -6,-37 -2,-3 -5,-7 -7,-10 -4,-5 -8,-8 -13,-11 -9,-5 -18,-6 -26,-3 -9,4 -16,14 -18,27 -2,12 1,25 7,37 5,9 12,17 19,21 5,3 11,5 16,5zm10 -74l0 0c3,3 5,7 7,10 6,11 8,24 6,35 -1,11 -7,20 -15,23 -6,3 -13,2 -20,-2 -8,-4 -14,-11 -18,-20 -6,-11 -8,-24 -7,-35 2,-11 7,-20 15,-23 6,-2 14,-2 21,3 4,2 8,5 11,9z"/>
          </g>
         </g>
        </g>
        <g>
         <g>
          <path class="fil13" d="M3992 857l25 33c2,2 4,2 5,-1l4 -32c1,-3 -1,-6 -3,-6l-30 1c-2,0 -3,3 -1,5z"/>
         </g>
        </g>
       </g>
      </g>
     </g>
    </g>
    <g>
     <path class="fil6" d="M4198 1066c0,-63 -10,-97 -40,-122 -41,-34 -55,-96 -70,-93 -19,4 -35,44 -11,95 28,57 42,96 38,126 -5,35 83,-6 83,-6z"/>
    </g>
    <g>
     <path class="fil18" d="M5068 1126c118,25 168,37 219,54 71,24 86,293 67,417 -7,53 -33,174 -30,235 4,108 21,309 24,402 -92,94 -649,71 -765,-98 -1,-255 1,-505 11,-697 11,-208 89,-305 151,-319 29,-7 167,-27 323,6z"/>
    </g>
    <g>
     <path class="fil19" d="M4991 2213c196,-60 261,-237 255,-375 -6,-137 -40,-308 -33,-416l149 33c1,53 -2,104 -8,142 -7,53 -33,174 -30,235 4,108 21,309 24,402 -66,66 -364,75 -574,14 53,0 126,-7 217,-35z"/>
    </g>
    <g>
     <g>
      <g>
       <path class="fil12" d="M4899 794l327 -15c62,50 176,154 176,181l-1 20c0,1 0,1 -1,2 -12,22 -54,34 -119,33 -77,0 -196,-11 -226,-38 -46,-42 -156,-164 -156,-164l16 -1c-10,-11 -16,-18 -16,-18z"/>
      </g>
      <g>
       <path class="fil12" d="M5226 798c64,51 186,162 174,184 -12,22 -54,34 -119,33 -77,0 -196,-11 -226,-38 -46,-42 -156,-164 -156,-164l327 -15z"/>
      </g>
      <g>
       <path class="fil20" d="M5226 798c64,51 187,162 174,184 -12,22 -54,34 -119,33 -76,0 -196,-11 -226,-38 -46,-42 -156,-164 -156,-164l327 -15z"/>
      </g>
     </g>
     <g>
      <g>
       <path class="fil12" d="M5226 798c0,9 -33,28 -33,28l10 -57c14,5 21,16 23,29z"/>
      </g>
     </g>
    </g>
    <g>
     <g>
      <g>
       <path class="fil9" d="M5213 652c-17,-39 -68,-47 -68,-47 0,0 -15,-28 -65,-60 -50,-32 -124,-40 -209,-42 -98,-3 -173,67 -188,161 -8,18 -11,38 -11,48 -4,107 80,177 187,180 74,2 139,-36 174,-95 29,23 76,74 76,74l-6 72 11 93c0,0 13,-39 26,-63 14,-24 35,-57 57,-119 29,-86 32,-168 16,-202z"/>
      </g>
      <g>
       <path class="fil6" d="M5106 859c17,16 33,-23 48,-38 15,-15 64,-35 86,17 23,52 -24,123 -62,136 -40,14 -59,-22 -59,-22l1 225c-58,98 -166,100 -218,93 -52,-7 -64,-62 -24,-105l0 -71c0,0 -49,5 -84,-5 -46,-12 -72,-39 -85,-91 -21,-84 -26,-225 10,-385 55,-40 241,-38 351,37 5,161 19,193 36,209z"/>
      </g>
      <g>
       <path class="fil9" d="M4698 618c-30,47 -19,138 34,151 -12,-36 3,-72 17,-84 -2,9 -2,25 1,33 3,13 9,27 19,35 11,9 34,23 49,22 -2,-7 -2,-19 -2,-27 0,-11 4,-26 8,-34 4,11 13,25 19,32 15,16 44,28 66,25 0,-9 1,-16 4,-26 3,-15 6,-23 14,-33 5,17 13,36 27,49 16,14 38,22 57,28 14,4 28,6 41,11 7,2 18,4 23,8 8,4 11,11 11,12 69,-76 38,-161 1,-202l-389 0z"/>
      </g>
      <g>
       <path class="fil11" d="M4878 1094c0,0 98,-9 149,-37 25,-14 47,-35 53,-50 0,0 -5,34 -31,60 -50,49 -171,54 -171,54l0 -27z"/>
      </g>
     </g>
     <g>
      <g>
       <path class="fil10" d="M4946 735l47 23c6,-14 0,-30 -13,-36 -13,-6 -28,-1 -34,13z"/>
      </g>
      <g>
       <path class="fil21" d="M4935 942l-77 26c7,22 29,34 51,26 21,-7 32,-30 26,-52z"/>
      </g>
      <g>
       <path class="fil22" d="M4909 994c-7,3 -15,3 -21,1 1,-19 17,-34 37,-34 4,0 7,1 10,2 -2,14 -12,27 -26,31z"/>
      </g>
      <g>
       <path class="fil10" d="M4721 753l47 -24c-6,-13 -21,-19 -34,-12 -13,6 -19,23 -13,36z"/>
      </g>
      <g>
       <path class="fil10" d="M4923 807c0,14 11,24 24,24 13,0 24,-10 24,-24 0,-13 -11,-23 -24,-23 -13,0 -24,10 -24,23z"/>
      </g>
      <g>
       <path class="fil10" d="M4741 799c0,13 11,24 24,24 13,0 24,-11 24,-24 0,-13 -11,-23 -24,-23 -13,0 -24,10 -24,23z"/>
      </g>
      <g>
       <polygon class="fil11" points="4858,769 4844,918 4773,897 "/>
      </g>
     </g>
    </g>
    <g>
     <g>
      <path class="fil7" d="M4964 449c-135,-18 -222,37 -267,145 -9,22 -13,49 -14,70 82,-58 261,-41 374,9 71,31 110,66 149,103 8,7 14,14 20,23 9,-25 14,-52 16,-80 8,-157 -120,-249 -278,-270z"/>
     </g>
     <g>
      <path class="fil9" d="M4728 599c0,0 80,-34 188,-11 8,-45 14,-91 -83,-84 -78,6 -105,95 -105,95z"/>
     </g>
    </g>
    <g>
     <path class="fil6" d="M4620 2127c2,-5 7,-9 12,-11 48,-24 108,-7 159,-9 17,-1 62,0 72,-18 7,-13 -33,-14 -61,-31 -28,-17 -24,-61 -1,-49 22,12 58,8 112,15 53,6 93,24 132,18 38,-5 108,-39 199,-82 124,-59 136,-67 136,-67l-102 -274c-92,-198 -50,-379 9,-431 144,28 190,118 232,237 36,104 104,326 131,459 30,141 9,155 -110,212 -120,57 -381,117 -440,131 -59,13 -100,45 -204,53 -49,3 -110,4 -148,-33 -8,-9 -16,-20 -26,-26 -7,-3 -14,-5 -20,-7 -8,-3 -16,-7 -22,-12 -4,-3 -8,-6 -9,-11 -3,-6 0,-14 -3,-21 -2,-8 -10,-12 -17,-15 -8,-2 -16,-4 -22,-8 -7,-4 -12,-13 -9,-20z"/>
    </g>
    <g>
     <path class="fil11" d="M5380 1893c68,-24 136,1 174,17 -32,-38 -104,-63 -182,-37l8 20z"/>
    </g>
    <path class="fil12" d="M5275 1176c103,21 181,63 228,195 50,141 97,306 97,306 0,0 -12,26 -110,72 -98,46 -151,39 -151,39 0,0 -60,-141 -93,-224 -32,-83 -70,-258 29,-388z"/>
   </g>
   <g>
    <g>
     <g>
      <path class="fil7" d="M1764 1969l128 -74c0,0 0,0 0,0l1 -1 1 0c62,-35 147,-30 242,25 190,110 344,377 344,596 0,110 -39,187 -101,223l0 0 0 0 0 0 -130 75c-62,39 -151,36 -249,-21 -190,-110 -344,-377 -344,-596 0,-114 41,-193 108,-227z"/>
     </g>
     <g>
      <path class="fil10" d="M2467 2400c8,39 13,78 13,115 0,110 -39,187 -101,223l0 0 0 0 0 0 -130 75 -30 -51 -86 -170 334 -192z"/>
     </g>
     <g>
      <path class="fil9" d="M2000 1997c190,110 344,377 344,596 0,220 -154,309 -344,199 -190,-110 -344,-377 -344,-596 0,-220 154,-309 344,-199z"/>
     </g>
    </g>
    <g>
     <g>
      <path class="fil17" d="M1864 2303l0 -85c0,-96 58,-140 131,-98 72,41 130,153 130,249l0 76c0,47 17,101 44,147 0,0 1,0 1,0 6,12 10,26 10,39 0,24 -14,35 -33,25l-305 -177c-18,-10 -33,-38 -33,-62 0,-13 4,-21 10,-26 0,0 0,0 0,0 27,-12 45,-43 45,-88z"/>
     </g>
     <g>
      <path class="fil17" d="M1932 2557c0,47 28,100 63,120 34,20 62,-1 62,-47l-125 -73z"/>
     </g>
    </g>
   </g>
   <g>
    <path class="fil3" d="M2906 1349l57 -33c1,0 2,-1 3,-2l10 -19 -34 -19 1 3 -37 70z"/>
    <path class="fil3" d="M3142 1270c0,17 -13,39 -28,48l-22 12c-14,8 -35,9 -50,3 12,5 22,-3 22,-18l0 -585c0,-9 -3,-18 -8,-27l78 -45c5,9 8,19 8,28l0 584z"/>
    <path class="fil23" d="M2941 1275c1,-2 2,-3 4,-4 1,0 2,0 2,0 2,0 3,0 4,1l90 52c1,0 2,1 3,1l0 0c0,1 1,1 1,1 2,0 3,0 4,0 7,0 8,-7 8,-11l0 -585c0,-7 -3,-15 -7,-23 -5,-8 -11,-14 -17,-18l-606 -349c-3,-2 -6,-3 -8,-3 -2,0 -5,0 -7,6 0,2 -1,4 -1,6l0 584c0,17 0,27 21,39l428 247c1,1 3,2 3,4l40 116 38 -64z"/>
    <path class="fil3" d="M2420 345c-1,1 -1,2 -1,4l0 584c0,16 0,23 17,32l428 247c3,2 5,5 7,9l34 100 29 -50c2,-4 5,-6 9,-7 2,-1 3,-1 4,-1 3,0 6,1 8,2l90 52c0,1 1,1 2,1 0,0 0,0 0,0 0,0 0,0 1,0 0,0 0,1 0,1 1,-1 1,-3 1,-4l0 -585c0,-5 -2,-13 -6,-19 -4,-7 -9,-12 -14,-15l-606 -350c-1,-1 -3,-1 -3,-1zm-1 -16l0 0c3,0 8,1 12,4l606 350c7,4 14,11 19,20 5,9 8,19 8,27l0 585c0,12 -6,19 -15,19 -2,0 -4,0 -6,-1 -1,0 -1,0 -1,0 -2,-1 -4,-2 -5,-3l-90 -51 -39 68c-1,2 -3,3 -5,3 -2,0 -5,-2 -6,-4l-41 -120 -427 -247c-25,-14 -25,-28 -25,-46l0 -584c0,-3 0,-5 1,-8 2,-8 7,-12 14,-12z"/>
    <path class="fil4" d="M2405 341c3,-12 13,-15 26,-8l606 350c7,4 14,11 19,20l78 -44c-5,-9 -12,-17 -20,-21l-605 -350c-16,-9 -40,-9 -55,0l-23 13c-13,8 -24,24 -26,40z"/>
    <path class="fil1" d="M2977 786c0,-5 -4,-12 -9,-15l-437 -252c-4,-3 -12,-3 -17,0l-9 6c-5,2 -9,9 -9,14l0 335c0,6 4,12 9,15l436 252c5,3 13,3 18,0l9 -5c5,-3 9,-9 9,-15l0 -335z"/>
    <path class="fil2" d="M2937 799l37 -21c2,2 3,5 3,8l0 335c0,6 -4,12 -9,15l-9 5c-5,3 -13,3 -18,0l-4 -2 0 -340z"/>
    <path class="fil1" d="M2496 539l0 335c0,3 1,6 3,9 1,2 3,4 5,6l0 0c0,0 0,0 1,0l436 252 1 0c2,2 4,2 5,1 2,-1 3,-3 3,-5l0 -335c0,-6 -4,-9 -10,-8l-183 44 -24 5c-6,2 -13,-1 -16,-5l-28 -39 -187 -261c-3,-5 -6,-4 -6,1z"/>
    <path class="fil2" d="M2505 889c-1,0 -1,0 -1,0l0 0c-2,-2 -4,-4 -5,-6 -2,-3 -3,-6 -3,-8l193 -76 -129 122 -55 -32z"/>
    <path class="fil2" d="M2950 1137c0,2 -1,4 -3,5 -1,1 -3,1 -5,-1l-1 0 -150 -86 -34 -217 193 293 0 6z"/>
    <path class="fil24" d="M2499 883c1,2 3,4 5,6l0 0 437 252 1 0c2,2 4,2 5,1l-209 -334c-9,-14 -26,-19 -41,-13l-198 88z"/>
    <path class="fil15" d="M2946 794l-198 87c-15,7 -32,2 -41,-12l-209 -334 448 259z"/>
    <path class="fil24" d="M2946 794l-200 74c-14,6 -30,0 -38,-12l-210 -321 448 259z"/>
   </g>
   <g>
    <path class="fil9" d="M2163 752c-2,70 -61,126 -131,123 -71,-2 -126,-61 -124,-131 2,-71 61,-126 132,-124 70,2 125,61 123,132z"/>
    <path class="fil7" d="M2099 766c-23,13 -85,45 -146,79 21,18 49,29 79,30 70,3 129,-53 131,-123 1,-27 -6,-52 -19,-72 10,32 2,60 -45,86z"/>
    <path class="fil7" d="M2008 835l-87 -54c24,104 35,258 24,371l35 21c23,-67 32,-205 28,-338z"/>
    <path class="fil9" d="M2116 837l-39 47 -5 140c-2,62 -37,119 -92,149 24,-80 30,-217 28,-338l108 2z"/>
    <path class="fil25" d="M1993 993c1,1 2,1 3,2 4,2 11,2 15,0l21 -11c4,-2 7,0 7,5l0 3c0,4 -4,10 -8,13l-21 11c-4,2 -11,2 -15,-1l-3 -1c-4,-3 -7,-9 -7,-14l0 -3c1,-5 4,-6 8,-4z"/>
    <path class="fil25" d="M1989 1039c0,0 1,1 2,1 4,3 11,3 15,1l21 -11c4,-3 8,-1 7,4l0 3c0,5 -3,11 -8,13l-21 12c-4,2 -11,2 -15,-1l-2 -2c-4,-2 -7,-8 -7,-13l0 -3c0,-5 3,-7 8,-4z"/>
    <path class="fil25" d="M1984 1084c1,1 2,2 3,2 4,3 11,3 15,1l20 -12c5,-2 8,0 8,5l0 3c0,5 -4,11 -8,13l-21 11c-4,3 -11,2 -15,0l-3 -2c-4,-2 -7,-9 -7,-13l0 -3c0,-5 4,-7 8,-5z"/>
    <path class="fil24" d="M1872 666l0 0c17,-9 40,-8 65,5 3,1 6,3 8,5 3,2 7,4 10,6 5,4 10,8 15,12 8,8 17,17 24,27 21,27 37,59 45,91 4,16 6,32 5,48 -1,32 -13,55 -31,65l65 -35 0 0c23,-13 39,-38 40,-70 1,-15 -1,-30 -5,-46 -7,-32 -23,-65 -44,-93 -8,-10 -16,-19 -25,-27 -5,-4 -10,-8 -15,-12 -3,-2 -6,-4 -10,-6 -2,-2 -5,-3 -8,-5 -25,-12 -51,-11 -73,-1l0 0 -1 1c-1,1 -2,1 -3,1l-62 34z"/>
    <path class="fil26" d="M2078 890l0 0c23,-13 39,-38 40,-70 1,-15 -1,-30 -5,-46l-74 38c4,16 6,32 5,48 -1,32 -13,55 -31,65l65 -35z"/>
    <path class="fil1" d="M1839 733c-2,66 42,149 99,184 29,17 55,20 74,9 0,0 1,0 1,-1 18,-10 30,-33 31,-65 2,-67 -42,-149 -99,-184 -28,-18 -54,-20 -73,-10 -20,10 -32,33 -33,67z"/>
    <path class="fil8" d="M1519 706c0,0 104,57 189,216 17,31 30,60 41,88 41,112 35,188 35,188 34,-76 75,-154 142,-213 42,-37 82,-65 82,-65l0 0c18,-9 29,-31 30,-61 0,-19 -3,-40 -10,-61 -5,-13 -10,-27 -17,-39 -17,-32 -42,-61 -69,-78 -26,-15 -50,-18 -67,-9l0 0c0,0 -46,19 -99,33 -86,23 -175,15 -257,1z"/>
    <path class="fil26" d="M1749 1010c41,112 35,188 35,188 34,-76 75,-154 142,-213 42,-37 82,-65 82,-65l0 0c18,-9 29,-31 30,-61 0,-19 -3,-40 -10,-61 -81,37 -213,107 -279,212z"/>
    <path class="fil24" d="M1317 850c-3,70 17,147 50,218l0 0c43,91 109,173 185,220 135,83 248,23 253,-136 1,-36 -4,-74 -13,-113 -24,-94 -76,-190 -143,-259 -10,-10 -19,-19 -29,-28 -4,-4 -9,-7 -13,-11l0 0c-6,-5 -12,-9 -18,-14 -7,-4 -13,-9 -20,-13 -135,-83 -248,-22 -252,136z"/>
    <path class="fil2" d="M1333 860c-2,70 20,149 58,222 40,78 98,148 163,188 32,19 63,30 90,31 28,1 51,-9 68,-29 20,-23 31,-60 33,-105 1,-32 -3,-66 -12,-100 -3,-13 -7,-26 -11,-39 -7,-23 -16,-46 -27,-68 -2,-4 -5,-9 -7,-13 -4,-7 -8,-15 -12,-22 -14,-25 -29,-49 -47,-70 0,-1 0,-1 0,-1 -12,-15 -24,-28 -36,-41 -9,-9 -18,-18 -28,-26 -4,-3 -8,-6 -12,-10 -4,-3 -9,-7 -14,-10 -5,-4 -10,-7 -15,-10 -32,-20 -63,-31 -90,-31 -61,-2 -98,48 -101,134z"/>
    <path class="fil27" d="M1511 925l80 153c37,-18 81,-40 135,-37 -1,-5 -2,-9 -4,-13 -7,-23 -16,-46 -27,-68 -2,-4 -5,-9 -7,-13 -4,-7 -8,-15 -12,-22 -14,-25 -29,-49 -47,-70 0,-1 0,-1 0,-1 -3,-3 -5,-7 -8,-10 -29,48 -110,81 -110,81z"/>
    <path class="fil28" d="M1580 1080c18,0 30,-14 30,-39l0 -1c1,-39 -25,-88 -58,-109l-1 0c-9,-6 -18,-9 -25,-9 -19,0 -30,14 -31,39l0 1c-1,39 25,88 58,109l1 0c9,6 18,9 26,9l0 0z"/>
    <g>
     <g>
      <g>
       <path class="fil3" d="M1553 618c11,0 20,-8 20,-19l6 -188c0,-11 -8,-20 -19,-20 -11,0 -20,8 -20,19l-6 188c0,10 9,19 19,20z"/>
      </g>
     </g>
     <g>
      <g>
       <path class="fil3" d="M1729 642c6,0 13,-3 17,-9l98 -160c6,-10 3,-22 -6,-27 -9,-6 -21,-3 -27,6l-98 160c-6,9 -3,21 6,27 3,2 6,3 10,3z"/>
      </g>
     </g>
     <g>
      <g>
       <path class="fil3" d="M1864 1555c3,0 6,-1 9,-3 10,-5 13,-16 8,-26l-89 -165c-5,-10 -17,-13 -26,-8 -10,5 -13,17 -8,26l89 166c3,6 10,10 17,10z"/>
      </g>
     </g>
     <g>
      <g>
       <path class="fil3" d="M1512 1594c10,1 20,-6 22,-17l26 -186c2,-11 -6,-21 -16,-22 -11,-2 -21,6 -22,16l-27 187c-1,10 6,20 17,22z"/>
      </g>
     </g>
     <g>
      <g>
       <path class="fil3" d="M1231 1424c6,2 14,0 18,-6l125 -141c7,-8 6,-20 -2,-27 -8,-7 -20,-7 -27,2l-125 140c-7,8 -6,21 2,28 2,2 6,4 9,4z"/>
      </g>
     </g>
     <g>
      <g>
       <path class="fil3" d="M1076 1211c3,0 7,0 10,-2l166 -89c9,-5 13,-17 7,-27 -5,-9 -16,-13 -26,-8l-165 90c-10,5 -13,17 -8,26 3,6 9,10 16,10z"/>
      </g>
     </g>
     <g>
      <g>
       <path class="fil3" d="M1013 944l188 6c11,0 20,-8 20,-19 0,-11 -8,-20 -19,-20l-188 -6c-11,0 -20,8 -20,19 0,11 8,20 19,20z"/>
      </g>
     </g>
     <g>
      <g>
       <path class="fil3" d="M1252 780c7,0 13,-3 17,-9 6,-9 3,-21 -6,-27l-160 -99c-9,-6 -21,-3 -27,6 -6,10 -3,22 6,27l160 99c3,2 7,3 10,3z"/>
      </g>
     </g>
     <g>
      <g>
       <path class="fil3" d="M1381 658c3,1 7,0 10,-2 9,-5 13,-17 8,-26l-90 -166c-5,-9 -16,-13 -26,-8 -9,5 -13,17 -8,27l89 165c4,7 10,10 17,10z"/>
      </g>
     </g>
    </g>
   </g>
   <g>
    <path class="fil29" d="M2487 1245c48,-28 114,-24 187,19l2540 1466c146,84 265,290 265,459l0 394c0,84 -30,144 -78,171 -44,26 -116,67 -161,93 -48,28 -114,24 -188,-19l-2539 -1466c-147,-84 -265,-290 -265,-459l0 -394c0,-84 29,-144 77,-171 45,-26 117,-67 162,-93z"/>
    <path class="fil30" d="M5240 3847c45,-26 117,-67 161,-93 48,-27 78,-87 78,-171l0 -394c0,-72 -22,-151 -58,-225l-161 93c36,73 58,152 58,225l0 393c0,84 -30,144 -78,172z"/>
    <path class="fil2" d="M5052 2822l-2539 -1466c-147,-84 -265,-16 -265,153l0 394c0,169 118,375 265,459l2539 1466c147,85 266,16 266,-153l0 -393c0,-169 -119,-375 -266,-460z"/>
    <path class="fil28" d="M2965 1956l-56 40 -7 -7c0,-2 1,-3 1,-4 1,-4 -3,-12 -12,-24 -28,-36 -63,-67 -106,-92 -18,-12 -35,-20 -50,-25 -11,-3 -20,-4 -28,-3 -7,2 -12,6 -13,12 -2,11 5,23 20,37 8,7 26,20 53,39l41 29c24,16 44,31 58,44 15,13 27,26 37,40 11,14 19,28 24,44 4,15 5,29 3,41 -4,20 -16,33 -35,38 -18,5 -43,2 -75,-10 -25,-9 -50,-22 -76,-38 -48,-29 -93,-66 -136,-112 -9,-10 -15,-15 -17,-16 -2,-2 -6,-2 -11,-2l-7 -8 52 -45 8 7c-1,1 -1,2 -1,3 -1,6 1,14 8,24 10,15 26,32 49,53 23,20 45,36 66,49 23,15 44,24 62,27 10,3 18,2 24,0 7,-2 11,-7 12,-13 2,-9 -3,-20 -15,-32 -9,-8 -26,-21 -53,-40l-40 -28c-27,-19 -46,-33 -57,-42 -10,-8 -21,-18 -31,-30 -15,-16 -26,-33 -32,-51 -7,-16 -8,-31 -5,-45 5,-24 19,-38 43,-41 32,-3 75,11 130,45 23,14 44,28 63,44 19,16 43,38 70,65 10,10 16,15 18,17 4,2 8,3 14,3l7 7z"/>
    <path id="1" class="fil28" d="M2988 2235l48 -238c1,-4 0,-8 -2,-12 -2,-3 -6,-8 -12,-13l2 -7 112 68 -1 7c-7,-2 -12,-3 -15,-2 -2,0 -4,3 -5,7l-48 238c-1,5 0,9 2,12 2,4 6,8 12,13l-1 7 -113 -68 2 -7c6,3 11,4 14,3 3,-1 4,-3 5,-8z"/>
    <path id="2" class="fil28" d="M3485 2447l-89 -54c-6,-3 -10,-4 -13,-4 -3,0 -6,2 -9,6l-9 -5 14 -66 8 6c1,6 2,10 5,14 2,3 6,7 12,10l170 104 -1 6c-7,-2 -11,-3 -14,-2 -3,1 -5,3 -6,7l-12 58c0,4 0,8 2,12 2,4 6,8 12,13l-1 5c-74,-10 -144,-35 -208,-74 -58,-36 -103,-75 -136,-119 -40,-55 -56,-107 -46,-156 9,-45 36,-68 83,-70 44,-2 98,17 163,56 21,13 40,26 57,40 18,14 38,31 59,52 12,11 20,18 25,22 4,2 8,3 14,3l7 7 -56 42 -7 -8c1,-4 0,-8 -1,-11 -1,-3 -3,-7 -8,-13 -9,-13 -24,-28 -44,-45 -20,-17 -39,-31 -57,-42 -38,-23 -71,-34 -99,-32 -31,2 -50,18 -57,49 -5,29 3,62 27,97 22,32 53,60 94,85 20,12 40,22 60,30 20,8 38,14 53,16l8 -39z"/>
    <path id="3" class="fil28" d="M3735 2496l-35 172c0,4 0,8 2,11 2,4 6,9 12,14l-1 7 -106 -64 2 -7c6,2 11,3 14,2 3,0 5,-3 6,-7l47 -238c1,-5 0,-8 -2,-12 -2,-4 -6,-8 -12,-13l2 -7 122 74 -1 7c-8,-3 -13,-2 -14,2 0,4 2,9 6,16l167 282 33 -167c1,-4 0,-8 -2,-12 -2,-3 -6,-8 -12,-13l2 -7 105 64 -1 7c-7,-2 -12,-3 -15,-2 -2,0 -4,3 -5,7l-48 238c-1,4 0,8 2,12 2,4 6,8 12,13l-1 7 -114 -69 2 -6c7,3 12,2 13,-3 0,-2 -3,-10 -10,-22l-170 -286z"/>
    <path id="4" class="fil28" d="M4631 2965l-31 158c-6,30 -18,48 -35,55 -30,11 -85,-7 -165,-56 -57,-34 -99,-68 -127,-101 -16,-19 -26,-38 -30,-57 -4,-18 -4,-37 0,-57l32 -158c1,-4 0,-8 -2,-12 -2,-3 -6,-8 -12,-13l1 -7 113 68 -2 7c-6,-2 -11,-3 -14,-3 -3,1 -4,4 -5,8l-28 141c-4,16 -5,29 -4,38 0,9 3,18 9,27 14,24 41,49 82,74 41,24 71,35 91,31 7,-1 12,-5 16,-12 4,-6 8,-18 11,-34l28 -140c1,-5 0,-9 -2,-12 -2,-4 -6,-8 -12,-14l2 -6 105 64 -1 7c-7,-3 -11,-4 -14,-3 -3,1 -5,3 -6,7z"/>
    <path id="5" class="fil28" d="M4772 3214l-18 93c-1,4 0,8 2,12 2,4 6,8 12,13l-2 7 -112 -68 1 -7c7,2 11,3 14,2 3,0 5,-3 6,-7l48 -238c0,-4 0,-8 -2,-12 -2,-4 -6,-8 -12,-13l1 -7 225 136c26,16 47,30 62,42 14,12 27,25 37,39 11,15 19,30 23,45 5,16 6,31 3,44 -4,19 -13,32 -29,38 -14,5 -31,5 -50,-1 -20,-6 -46,-19 -79,-39l-130 -79zm10 -46l120 73c24,14 41,22 51,24 7,1 13,0 18,-3 5,-4 8,-9 9,-16 2,-6 1,-14 -2,-22 -2,-8 -6,-15 -12,-21 -9,-10 -25,-22 -49,-37l-121 -73 -14 75z"/>
   </g>
   <g>
    <g>
     <g>
      <path class="fil13" d="M2934 2946c6,-14 14,-22 23,-27l0 0 0 0 56 -33 0 0c25,-14 55,0 71,10l35 -20 0 0c43,-26 103,28 116,41l16 -9 0 0c20,-12 47,-4 72,8l0 -206c0,-22 7,-38 20,-46l0 0 0 -1c1,0 1,0 1,0l56 -32c0,0 0,0 0,0l0 -1 0 0c14,-7 32,-6 51,6 41,23 73,79 73,126l0 630c3,-1 6,-2 9,-4 49,-35 102,-55 148,-47 44,8 83,45 94,65 24,43 -15,69 -66,128 -51,58 -96,127 -142,170 -46,43 -80,55 -80,55l0 82 -56 33 -427 -247 0 -83c0,0 -53,-211 -70,-299 -17,-89 -32,-232 0,-299z"/>
     </g>
     <g>
      <path class="fil31" d="M2934 2946c6,-14 14,-22 23,-27l0 0 0 0 56 -33 0 0c25,-14 55,0 71,10l35 -20 0 0c43,-26 103,28 116,41l16 -9 0 0c20,-12 47,-4 72,8l0 -206c0,-22 7,-38 20,-46l0 0 0 -1c1,0 1,0 1,0l56 -32c0,0 0,0 0,0l0 -1 0 0c14,-7 32,-6 51,6 41,23 73,79 73,126l0 630c3,-1 6,-2 9,-4 49,-35 102,-55 148,-47 44,8 83,45 94,65 24,43 -15,69 -66,128 -51,58 -96,127 -142,170 -46,43 -80,55 -80,55l0 82 -56 33 -427 -247 0 -83c0,0 -53,-211 -70,-299 -17,-89 -32,-232 0,-299z"/>
     </g>
    </g>
    <g>
     <path class="fil32" d="M3322 2917l0 70c0,0 0,0 0,-1 -2,-1 -26,-22 -55,-37l55 -32zm-258 -31l0 0c8,3 15,7 20,10l-18 11c-10,5 -19,14 -27,29 0,0 -14,-11 -32,-18l57 -32zm133 1l0 0c18,11 33,24 38,30l-37 22c0,0 -1,0 -2,1 -5,2 -10,7 -14,12 0,0 0,0 0,0 -2,-2 -18,-18 -40,-32l55 -33zm327 -125l0 0 0 630c-19,10 -38,21 -56,35l0 -633 56 -32zm-201 155l0 0 -1 0 0 -1 1 1zm188 820l0 0c46,-43 91,-113 141,-171 48,-55 86,-82 71,-120l56 -32c16,38 -22,65 -70,120 -51,58 -96,127 -142,170 -46,43 -80,55 -80,55l0 82 -56 33 0 -83c0,0 34,-11 80,-54z"/>
    </g>
    <g>
     <g>
      <path class="fil13" d="M3431 3874l0 -83c0,0 34,-11 80,-54 46,-43 91,-113 141,-171 51,-58 91,-85 67,-127 -11,-21 -51,-58 -95,-66 -48,-8 -104,15 -156,54l0 -633c0,-46 -33,-103 -73,-126 -40,-23 -72,-4 -72,42l0 277c0,0 -101,-89 -141,-35 0,0 -99,-103 -143,-16 0,0 -72,-58 -105,10 -32,67 -17,210 0,299 17,88 70,299 70,299l0 83 427 247z"/>
     </g>
     <g>
      <path class="fil33" d="M3431 3874l0 -83c0,0 34,-11 80,-54 46,-43 91,-113 141,-171 51,-58 91,-85 67,-127 -11,-21 -51,-58 -95,-66 -48,-8 -104,15 -156,54l0 -633c0,-46 -33,-103 -73,-126 -40,-23 -72,-4 -72,42l0 277c0,0 -101,-89 -141,-35 0,0 -99,-103 -143,-16 0,0 -72,-58 -105,10 -32,67 -17,210 0,299 17,88 70,299 70,299l0 83 427 247z"/>
     </g>
    </g>
    <g>
     <g>
      <path class="fil34" d="M3652 3566c48,-55 86,-82 71,-120l56 -32c16,38 -22,65 -70,120 -51,58 -96,127 -142,170 -46,43 -80,55 -80,55l0 82 -56 33 0 -83c0,0 34,-11 80,-54 46,-43 91,-113 141,-171z"/>
     </g>
     <g>
      <polygon class="fil34" points="3323,2917 3322,2917 3322,2916 "/>
     </g>
     <g>
      <path class="fil34" d="M3468 2794l56 -32 0 630c-19,10 -38,21 -56,35l0 -633z"/>
     </g>
     <g>
      <path class="fil34" d="M3197 2887c18,11 33,24 38,30l-37 22c0,0 -1,0 -2,1 -5,2 -10,7 -14,12l0 116c0,0 -13,-119 -40,-148l55 -33z"/>
     </g>
     <g>
      <path class="fil34" d="M3007 2918l57 -32c8,3 15,7 20,10l-18 11c-10,5 -19,14 -27,29 0,0 0,0 0,0 0,0 0,0 0,0l0 116c0,0 -7,-116 -32,-134 0,0 0,0 0,0z"/>
     </g>
     <g>
      <path class="fil34" d="M3267 2949l55 -32 1 188c0,0 -9,-126 -56,-156 0,0 0,0 0,0z"/>
     </g>
    </g>
   </g>
  </g>
 </g>
</svg>
